<?xml version="1.0" encoding="UTF-8"?>
<svg viewBox="0 0 1203 831" xmlns="http://www.w3.org/2000/svg">
 <g fill-rule="evenodd" stroke-width=".5">
  <path d="m0 415.5v-415.5h1203v831h-1203v-415.5zm515-118l20.5 47.5 0.5 1 0.5 1 0.3 1.5 0.2 1.5h0.2q0.3 0 0.6 0.5l0.2 0.5h0.2q0.3 0 0.6 0.5l0.2 0.5 27.2 63.5q27.3 63.5 27.8 65l0.5 1.5 0.5 1 0.5 1 0.5 1 0.5 1 0.5 1.5 0.5 1.5 0.5-1 0.5-1 0.5-1.5 0.5-1.5 0.5-1 0.5-1 0.3-0.2 0.2-0.3 0.2-0.3q0.3-0.2 26.3-61.7l26-61.5 0.3-0.2 0.2-0.3 0.5-0.3 0.5-0.2 59.5-138.8q59.5-138.7 63.7-150 4.3-11.2 2.3-14.2t-3-9.5 0.7-11.7q1.8-5.3 5.8-9.3t10-5.5 11.5 1 8.3 5.8q2.7 3.2 3.7 6.2t0.5 9-3 11-6.8 7.8q-4.2 2.7-9.4 4-5.3 1.2-68.3 147.7t-64.7 150.3q-1.8 3.7-1.8 4v0.2l-29.8 70q-29.7 70 10.3 163t40.5 94l0.5 1v2l-0.3 0.2-0.2 0.3-1 0.3-1 0.2-0.2 1-0.3 1-0.3 0.2-0.2 0.3-1 0.3-1 0.2-0.2 1-0.3 1-0.3 0.2-0.2 0.3-1.5 0.3-1.5 0.2-0.2-1.5-0.3-1.5-0.3-0.2-0.2-0.3-0.2-0.3-0.3-0.2-0.5-1q-0.5-1-37.5-87l-37-86-0.5-1.5-0.5-1.5-0.5-1-0.5-1-0.5 2-0.5 2-0.3 0.2-0.2 0.3-0.2 0.3-0.3 0.2-37 86q-37 86-37.5 87l-0.5 1-0.3 0.2-0.2 0.3-0.2 0.3-0.3 0.2-0.3 1.5-0.2 1.5-1-0.2-1-0.3-0.2-0.3-0.3-0.2-0.3-0.2-0.2-0.3-0.2-0.3-0.3-0.2-0.3-0.2-0.2-0.3-0.2-0.3-0.3-0.2-0.3-0.2-0.2-0.3-0.2-0.3-0.3-0.2-0.3-0.2-0.2-0.3-0.2-0.3-0.3-0.2-0.3-0.2-0.2-0.3-0.2-0.3-0.3-0.2-0.3-0.2-0.2-0.3-1-0.5-1-0.5 0.2-0.3 0.3-0.2 0.5-1.5q0.5-1.5 39-91t40-94-27.8-73l-29.2-68.5h-0.5l-0.5-1-0.5-1-0.5-1-0.5-1-0.5-2-0.5-2-0.3-0.2q-0.2-0.3-63.4-147-63.3-146.8-66.6-147.6-3.2-0.7-9.2-3-6-2.2-8.8-7.2-2.7-5-2.7-14t4.3-14.2q4.2-5.3 10.7-6.8t12.5 1.5 8.8 6.7q2.7 3.8 3.2 13.3t-1.2 12.3q-1.8 2.7-2.6 5-0.7 2.2 40.3 97.7t61.5 143zm-49-35l0.5 1.5 0.5 1 0.5 1 0.3 1 0.2 1 14.2 28.5q14.3 28.5 15.6 31.5 1.2 3 2.2 3t4 6.8q3 6.7 10 19.7t8 13.3q1 0.2 3.5 6.7t4 6.5 2 1.2q0.5 1.3-0.3 2-0.7 0.8 7.6 15.3 8.2 14.5 9.2 14.5t1 2 1 2 3.8 6q2.7 6-6 12.8-8.8 6.7-10.3 7-1.5 0.2-1.5 1.2t-16 11.5-16.5 11.7q-0.5 1.3-1.5 1.6-1 0.2-1 1.2t-8.2 7q-8.3 6-14 12.5-5.8 6.5-9.6 10-3.7 3.5-4.7 5t-1.3 1.7l-0.2 0.3-0.2 0.3-0.3 0.2-0.3 0.2-0.2 0.3-0.2 0.3-0.3 0.2-0.3 0.2-0.2 0.3-0.2 0.3-0.3 0.2-0.3 0.2-0.2 0.3-0.2 0.3-0.3 0.2-0.5 1-0.5 1h-0.5v0.5l-0.2 0.3-0.3 0.2-0.5 1-0.5 1-0.3 0.2-0.2 0.3-1.2 0.7q-1.3 0.8-2.3 3.3t1 5 2.5 3.5l0.5 1 0.3 0.5 0.2 0.5 8.2 13.5q8.3 13.5 9.3 16.5t0.5 15-4 21.5-14.2 31.3q-10.8 21.7-11 22l-0.3 0.2-0.3 0.2-0.2 0.3-0.5 0.3-0.5 0.2-0.2 1q-0.3 1-0.6 1h-0.2l-1.5 3.5q-1.5 3.5-2.5 3.5t-7 8.8q-6 8.7-9.2 13-3.3 4.2-3.8 5.2l-0.5 1-0.3 0.2-0.2 0.3-0.2 0.3-0.3 0.2-0.3 0.2-0.2 0.3-0.5 0.3-0.5 0.2v0.5l-0.2 0.3-0.3 0.2-0.3 0.2-0.2 0.3-0.2 0.3-0.3 0.2-0.3 0.2-0.2 0.3-0.2 0.3-0.3 0.2-0.3 0.2-0.2 0.3-0.2 0.3-0.3 0.2-0.3 0.2-0.2 0.3-0.2 0.3-0.3 0.2-3.3 4.5q-3.2 4.5-11 11.5-7.7 7-8 8-0.2 1-3.4 3-3.3 2-8 6.8-4.8 4.7-9.3 7.4-4.5 2.8-7.5 6-3 3.3-19 14.3t-17.5 11.3q-1.5 0.2-3 2-1.5 1.7-3.5 2.7t-2.2 1.3l-0.3 0.2-0.3 0.2-0.2 0.3-1 0.3-1 0.2v0.2q0 0.3-0.5 0.6l-0.5 0.2v0.2q0 0.3-16 8.3t-22 9.5-9.5-2.8q-3.5-4.2-4.5-4.4-1-0.3-1.5-1.6-0.5-1.2-1.5-1.4-1-0.3-1.5-1.6-0.5-1.2-1.5-1.4-1-0.3-6.5-6.6-5.5-6.2-6.5-6.4-1-0.3-1.5-1.6-0.5-1.2-1.5-1.4-1-0.3-1.5-1.6-0.5-1.2-1.5-1.4-1-0.3-5-5-4-4.8-5-5-1-0.3-1.5-1.6-0.5-1.2-1.5-1.4-1-0.3-1.5-1.6-0.5-1.2-1.5-1.4-1-0.3-5-5-4-4.8-5-5-1-0.3-1.5-1.6-0.5-1.2-1.5-1.4-1-0.3-1.5-1.6-0.5-1.2-1.5-1.4-1-0.3-6.5-6.6-5.5-6.2-17-14.4-11.5-8.3-14-11-2.5-2.8-4-3.6l-1.5-0.7-0.2-0.3-0.3-0.2-0.3-0.2-0.2-0.3-1-0.5q-1-0.5-1-0.8v-0.2l-0.5-0.2-0.5-0.3v-0.5l-0.5-0.2-0.5-0.3-1-0.5-1-0.5-0.2-0.3-0.3-0.2-0.3-0.2-0.2-0.3-0.2-0.3-0.3-0.2-0.3-0.2q-0.2-0.3-2.7-1.6-2.5-1.2-2.5-2.2t-1-1.2q-1-0.3-12-8.8t-13-10.8q-2-2.2-3.5-2.4-1.5-0.3-2-1.6-0.5-1.2-22.5-17.7t-22-17.5-2-1.5-2.2-1.5q-0.3-1-3.6-3.2-3.2-2.3-5.7-5-2.5-2.8-7.5-6-5-3.3-8-6.6-3-3.2-10.5-8.4l-7.5-5.3-0.2-0.3-0.3-0.2-0.3-0.2-0.2-0.3-0.2-0.3-0.3-0.2-0.3-0.2-0.2-0.3-0.2-0.3-0.3-0.2-0.3-0.2-0.2-0.3-1-0.5-1-0.5 1-0.5 1-0.5 1.5-0.5 1.5-0.5 1.5-0.5q1.5-0.5 6-2t19-8 29-14.5 24.7-15.3q10.3-7.2 15.6-10.7 5.2-3.5 5.2-4.5t6-5.2q6-4.3 8.5-7 2.5-2.8 3.5-2.8t1-1 1-1.2q1-0.3 9-7l8-6.8 0.2-0.5q0.3-0.5 0.6-0.5h0.2l0.2-0.5q0.3-0.5 0.6-0.5h0.2l0.2-0.5q0.3-0.5 0.6-0.7l0.2-0.3 0.2-0.3 0.3-0.2 0.3-0.2q0.2-0.3 9.4-9 9.3-8.8 13-12.3 3.8-3.5 4-4.5 0.3-1 1.6-1.5 1.2-0.5 1.4-1.5 0.3-1 1.6-1.5 1.2-0.5 9-10 7.7-9.5 11.4-13 3.8-3.5 8-9.5 4.3-6 8-9.5 3.8-3.5-0.2-10.3-4-6.7-10.8-18.4-6.7-11.8-9-20.8l-2.2-9-0.2-1-0.3-1v-5q0-5 0.5-9t3.5-16 11-31.5 24.3-47.5q16.2-28 17.2-28t6-7l5-7v-0.2q0-0.3 0.5-0.6l0.5-0.2v-0.2q0-0.3 0.5-0.8l0.5-0.5 0.2-0.3 0.3-0.2 0.3-0.2 0.2-0.3 0.2-0.3 0.3-0.2 0.5-1 0.5-1 1.7-2.8q1.8-2.7 2.8-3 1-0.2 6.5-8 5.5-7.7 16.5-20.2t12-12.8q1-0.2 1.5-1.4 0.5-1.3 1.5-1.6 1-0.2 4.5-4 3.5-3.7 11.3-10.4 7.7-6.8 8-7.8 0.2-1 3.2-2.5t6.5-5.3q3.5-3.7 7.5-6.4 4-2.8 4.5-4 0.5-1.3 2-1.6 1.5-0.2 1.5-1.2t5.8-5q5.7-4 6.4-5.2 0.8-1.3 2.3-1.6 1.5-0.2 1.5-1.2t6-4.5 6-4.5 1-1 18.8 52.5q17.7 52.5 31.2 87t14 36zm444-64.5l0.5 1 0.3 0.2 0.2 0.3 0.2 0.3q0.3 0.2 0.6 0.7l0.2 0.5h0.2q0.3 0 0.6 0.5l0.2 0.5 10.2 14q10.3 14 18.8 28.5t8.8 15.5q0.2 1 1.2 1t12.2 23.5q11.3 23.5 15.8 40t4.8 25l0.2 8.5-1.8 10q-1.7 10-8.4 21.8-6.8 11.7-11.6 18.4-4.7 6.8 1 14.3 5.8 7.5 9.6 11 3.7 3.5 10.7 11.5t7.3 9.5q0.2 1.5 5.4 6 5.3 4.5 19.6 18.7 14.2 14.3 14.4 14.6l0.3 0.2 0.3 0.2 0.2 0.3 0.2 0.3 0.3 0.2 0.3 1 0.2 1h0.2q0.3 0 0.6 0.5l0.2 0.5 3 1.5q3 1.5 3 2.5t1.2 1.5q1.3 0.5 1.6 1.5 0.2 1 15.2 12.8 15 11.7 16 12 1 0.2 1 1.2t2 1.5 2 1.5 1.2 1.5q1.3 0.5 1.6 1.5 0.2 1 3.2 2t3 2 6.5 4.5 6.5 4.5 5.8 4q5.7 3 25.4 12.8 19.8 9.7 28.3 12.7t10.5 3.5l2 0.5 1 0.5 1 0.5 0.2 0.3 0.3 0.2 0.3 1 0.2 1-1 0.2-1 0.3-0.2 0.3-0.3 0.2-0.3 0.2-0.2 0.3-0.2 0.3-0.3 0.2-0.3 0.2-0.2 0.3-0.2 0.3-0.3 0.2-0.3 0.2q-0.2 0.3-3.2 2-3 1.8-3.2 2.8-0.3 1-2 1.5-1.8 0.5-2 1.5-0.3 1-6 5-5.8 4-5.8 5t-16 12.5-16.2 12.5q-0.3 1-14.6 11.5-14.2 10.5-14.4 11.5-0.3 1-8.6 7.2-8.2 6.3-17.2 13-9 6.8-9 7.8t-6.5 5.2l-6.5 4.3-0.2 0.3-0.3 0.2-0.3 0.2-0.2 0.3-0.2 0.3-0.3 0.2-0.3 0.2-0.2 0.3-0.2 0.3-0.3 0.2h-0.5l-0.2 0.5q-0.3 0.5-0.6 0.5h-0.2l-0.2 0.5q-0.3 0.5-0.6 0.7l-0.2 0.3-1 0.5q-1 0.5-11.5 8.2-10.5 7.8-10.7 8.8-0.3 1-2 1.5-1.8 0.5-3.3 2.3-1.5 1.7-41 40.7t-47.5 36.5-22.5-10.2l-14.5-7.8-0.5-0.2q-0.5-0.3-0.5-0.6v-0.2l-1-0.2-1-0.3-0.2-0.3-0.3-0.2-0.3-0.2-0.2-0.3-1-0.5q-1-0.5-2-0.8-1-0.2-1-1.2t-6-3.5-6-3.5-1-1.2q-1-0.3-23.5-17.6-22.5-17.2-22.7-18.2-0.3-1-5-4.8-4.8-3.7-17-17l-12.3-13.2-0.5-1-0.5-1-0.3-0.2-0.2-0.3-1-0.3-1-0.2v-2l-0.2-0.5-0.3-0.5-0.3-0.2-0.2-0.3-1-0.5-1-0.5-0.2-0.3-0.3-0.2-0.5-1.5q-0.5-1.5-7.8-10.7-7.2-9.3-9.2-13-2-3.8-3-4-1-0.3-7.5-12.8t-14.3-29.8q-7.7-17.2-9.7-25.2t-1-17.5 7.7-21.5q6.8-12 7.8-12t1.2-1.5q0.3-1.5 2.6-4.5l2.2-3v-0.2q0-0.3 0.2-0.6 0.3-0.2 0.8-3.2t-2-6l-2.5-3-0.3-0.2-0.2-0.3-0.2-0.3-0.3-0.2-0.3-0.2-0.2-0.3-0.2-0.3-0.3-0.2-0.3-0.2-0.2-0.3v-0.5h-0.5l-0.5-1-0.5-1-0.3-0.2-0.2-0.3-0.2-0.3-0.3-0.2-0.3-0.2-0.2-0.3-0.2-0.3-0.3-0.2-0.5-1q-0.5-1-4-5t-14.8-14.2q-11.2-10.3-12.7-12-1.5-1.8-32-23.6l-30.5-21.7 0.2-0.3 0.3-0.2 7.5-12q7.5-12 7.8-13.5 0.2-1.5 1.2-1.5t6.2-10.5q5.3-10.5 7-11.5 1.8-1 1.8-2.8 0-1.7 1.2-4 1.3-2.2 1-3.2-0.2-1 2-2.5 2.3-1.5 4-6 1.8-4.5 2.8-4.5t20.2-38q19.3-38 21-41.8 1.8-3.7 2-4l0.3-0.2 0.5-2 0.5-2 0.3-0.2 0.2-0.3 0.2-0.3 0.3-0.2 0.5-1 0.5-1h0.5l0.2-1.5 0.3-1.5 0.5-1 0.5-1 0.5-1 0.5-1 0.7-3.5q0.8-3.5 1.8-3.5t18.2-46.5q17.3-46.5 29.6-84 12.2-37.5 15-36 2.7 1.5 3 2.5 0.2 1 6.4 5 6.3 4 6.6 5 0.2 1 9.7 8.2 9.5 7.3 19 15.8t25.3 23.2q15.7 14.8 26.2 26.3t12.8 15.5q2.2 4 3.2 4t1.8 1.5q0.7 1.5 1.2 2.5z" stroke="#000"/>
  <path d="m816.8 255.8l0.2-0.3 0.5-0.3 0.5-0.2 8.2 8.5q8.3 8.5 20.6 24.3 12.2 15.7 13.2 16 1 0.2 2.2 2.7 1.3 2.5 1.6 3l0.2 0.5 0.2 1q0.3 1 0.6 1h0.2v0.2q0 0.3 0.5 0.6l0.5 0.2-0.2 1.5-0.3 1.5v2l4 6.5q4 6.5 3.5 10.5t-2 7-2 5l-0.5 2v3l0.3 1.5 0.2 1.5-0.2 0.5q-0.3 0.5-6.3 14t-18.5 36-18 31l-5.5 8.5-0.5 1-0.5 1-0.3 0.2-0.2 0.3-0.2 0.3-0.3 0.2-0.5 1-0.5 1-0.3-0.2-0.2-0.3-0.2-0.3-0.3-0.2-0.5-1-0.5-1-0.3-0.2-0.2-0.3-0.2-0.3-0.3-0.2-0.3-0.2-0.2-0.3-0.2-0.3-0.3-0.2-0.5-1q-0.5-1-1.8-3l-1.2-2-0.2-1-0.3-1-0.3-0.2-0.2-0.3-0.2-0.3-0.3-0.2-0.5-1q-0.5-1-11.5-17t-14.3-19q-3.2-3-3.4-4-0.3-1-7.3-8.5l-7-7.5-0.3-1-0.2-1h-2l-0.2-1-0.3-1-0.5 1-0.5 1-5.3 11q-5.2 11-6.4 11.5-1.3 0.5-5 7.7-3.8 7.3-8.8 17-5 9.8-6 9.8t-5 8-5 8-6 9.2q-5 9.3-6.8 12.6-1.7 3.2 2 7.7 3.8 4.5 5 5 1.3 0.5 1.6 1.5 0.2 1 4.7 4.5t8 8.3q3.5 4.7 4.5 5 1 0.2 1.2 1.2 0.3 1 0.6 1.2l0.2 0.3 0.2 0.3 0.3 0.2 0.3 0.2 0.2 0.3 0.2 0.3 0.3 0.2 0.3 1 0.2 1h2v2h-2l-0.2 1-0.3 1h-1l-0.5-1-0.5-1-0.3-0.2-0.2-0.3-0.2-0.3-0.3-0.2-0.3-0.2-0.2-0.3-0.2-0.3-0.3-0.2-0.5-1q-0.5-1-4-5t-14.8-14.2q-11.2-10.3-12.7-12-1.5-1.8-32-23.6l-30.5-21.7 0.2-0.3 0.3-0.2 7.5-12q7.5-12 7.8-13.5 0.2-1.5 1.2-1.5t6.2-10.5q5.3-10.5 7-11.5 1.8-1 1.8-2.8 0-1.7 1.2-4 1.3-2.2 1-3.2-0.2-1 2-2.5 2.3-1.5 4-6 1.8-4.5 2.8-4.5t20.2-38q19.3-38 21-41.8 1.8-3.7 2-4l0.3-0.2 0.5-2 0.5-2 0.3-0.2 0.2-0.3 0.2-0.3 0.3-0.2 0.5-1 0.5-1h1l0.3 0.2 0.2 0.3 0.2 0.3 0.3 0.2 0.3 0.5 0.2 0.5-0.2 0.5-0.3 0.5-0.5 2-0.5 2-0.5 1.5q-0.5 1.5-4.2 9.3-3.8 7.7-11.6 24.4l-7.7 16.8 0.3 0.2 0.2 0.3 8.5 5q8.5 5 11.7 6.7 3.3 1.8 3.6 2.8 0.2 1 9 8 8.7 7 9 8 0.2 1 5.7 5.8 5.5 4.7 5.7 5l0.3 0.2 0.3 0.2 0.2 0.3 0.2 0.3 0.3 0.2 0.3 0.2 0.2 0.3 0.2 0.3 0.3 0.2 0.3 0.2 0.2 0.3 1 0.3 1 0.2 0.2-1.5 0.3-1.5 0.3-0.2 0.2-0.3 0.2-0.3 0.3-0.2 16.5-33q16.5-33 22.5-47.5t9.5-22.5 3.8-9l0.2-1h0.5l0.3-0.2z" fill="#fefefe" stroke="#fefefe"/>
  <path d="m1026.2 498.8l0.3 0.2 0.3 0.2 0.2 0.3 1 0.5 1 0.5 0.5 0.3 0.5 0.2v1q0 1 1 1.2l1 0.3 1 1.7q1 1.8 19.5 16.3t19 15.7q0.5 1.3 1.5 1.8l1 0.5 0.2 0.3 0.3 0.2 0.3 0.2 0.2 0.3 1 0.5 1 0.5-1 0.5-1 0.5-0.2 0.3-0.3 0.2-0.3 0.2-0.2 0.3-0.2 0.3-0.3 0.2-0.3 0.2-0.2 0.3-1 0.5q-1 0.5-11 7t-24 17.2l-14 10.8-1 0.2-1 0.3-0.2 0.3-0.3 0.2-0.3 0.2-0.2 0.3-0.2 0.3-0.3 0.2-0.3 0.2-0.2 0.3-1 0.5-1 0.5-0.2 0.3-0.3 0.2-0.3 0.2-0.2 0.3-0.2 0.3-0.3 0.2-0.3 0.2q-0.2 0.3-2.2 2.6-2 2.2-8.5 5.7t-6.5 4.5-3 2.2q-3 1.3-8-3.2t-15-12.5-13-11.3q-3-3.2-4-3.2t-1-1-1.5-2l-1.5-1v-0.2q0-0.3-1-0.6l-1-0.2-0.2-0.5q-0.3-0.5-4-3.5-3.8-3-8.8-9.5t-6-6.5-4.5-4.2l-3.5-4.3-0.2-0.3-0.3-0.2-0.3-0.2q-0.2-0.3-2.2-0.8l-2-0.5-1 0.3-1 0.2-0.2 1-0.3 1-0.3 0.2q-0.2 0.3-1.7 1.3t-6 3.3q-4.5 2.2-5 4.2t-2 2.2q-1.5 0.3-3.5 1-2 0.8-2.2 1.8-0.3 1-1.6 0.8-1.2-0.3-1.4 1.4-0.3 1.8-2.6 2.6-2.2 0.7-4 4-1.7 3.2-2.4 1.7-0.8-1.5-1.8-1.5t-0.5 2.5-1 2.5-1.5 1-2 0.8q-2-0.3-2 1.4 0 1.8-4 3.8t-5 5-2 3-1.2-1q-0.3-1-2.6 3-2.2 4-3.4 4.5-1.3 0.5-5 4l-3.8 3.5v2l-1-0.2-1-0.3-1-0.5-1-0.5-0.2-0.3-0.3-0.2-0.3-0.2q-0.2-0.3-2.4-4l-2.3-3.8-0.5-1-0.5-1h-0.5l-2.2-3.5q-2.3-3.5-2-6.5 0.2-3 1.2-3t1-1.5 1-1.5 4-4.5 4-4.5 1.5-2 1.5-2 2.5-3 2.5-3 5-6.5 5.5-6.5 6-6.2q4.5-6.3 5.5-6.6 1-0.2 1.5-2.2t2.3-3.5q1.7-1.5 2-2.5 0.2-1 1.4-1.5 1.3-0.5 1.6-1.5 0.2-1 2.4-3 2.3-2 3.6-3.8 1.2-1.7 1.4-2l0.3-0.2 0.3-1.5 0.2-1.5h3v0.5l0.5 0.3 0.5 0.2-0.2 0.5-0.3 0.5-0.3 0.2-0.2 0.3 1 0.3 1 0.2 0.5 2.8q0.5 2.7 1.7 3.4 1.3 0.8 1.6 2.3 0.2 1.5 2.2 2.7 2 1.3 1 1.8t0 0.8q1 0.2 1.5 1.4 0.5 1.3-0.5 1.8t2.5 1.2q3.5 0.8 4 2.8t-0.5 2-0.8 1.5l0.3 1.5 0.3-1q0.2-1 1.2-1t1-1 2.2 0.5q2.3 1.5 2.6 1.7l0.2 0.3 0.2 0.3 0.3 0.2 0.3 0.2 0.2 0.3 1 0.3 1 0.2v1q0 1 1.5 1.8 1.5 0.7 1.7 1l0.3 0.2 0.3-0.2 0.2-0.3 9.2-7.3q9.3-7.2 9.6-8.2 0.2-1 3-2.5 2.7-1.5 22.4-16.3 19.8-14.7 26.3-19.2t8.7-3.8q2.3 0.8 13.6 11.6 11.2 10.7 11.4 11zm-129 16.2q0.3-1 1-0.2 0.8 0.7-0.2 1-1 0.2-0.8-0.8zm6 8.8q-0.2-0.3 0-0.6 0.3-0.2 0.3 0.3t-0.3 0.3zm8 4q-0.2-0.3 0-0.6 0.3-0.2 0.3 0.3t-0.3 0.3zm0 2q-0.2-0.3 0-0.6 0.3-0.2 0.3 0.3t-0.3 0.3z" stroke="#000"/>
  <path d="m277.8 208.5l0.2-0.5 2.5 0.2 2.5 0.3 0.5 0.3 0.5 0.2-4.2 6q-4.3 6-3.8 11t5.2 18.2q4.8 13.3 11.3 29.8t13.3 32.8q6.7 16.2 7.2 18.2l0.5 2 0.3 0.2 0.2 0.3 0.2 0.3 0.3 0.2 0.3 1.5 0.2 1.5h3l0.2-1 0.3-1 0.3-0.2 0.2-0.3 0.2-0.3 0.3-0.2 0.5-1q0.5-1 10-15.5t10.8-15q1.2-0.5 1.4-1.5 0.3-1 10.3-13t13.3-15.5l3.2-3.5h0.2q0.3 0 0.6-0.5l0.2-0.5 1-0.2 1-0.3 0.2-0.3 0.3-0.2 0.3-0.2 0.2-0.3 0.2-0.3 0.3-0.2 0.3-0.2 0.2-0.3 0.2-0.3 0.3-0.2 0.3 0.2 0.2 0.3 0.2 0.3q0.3 0.2 0.6-0.8l0.2-1h2v1q0 1 1 1h1v0.2q0 0.3 0.5 0.6l0.5 0.2v0.2q0 0.3 0.5 0.6l0.5 0.2 8 18.8q8 18.7 16.8 38 8.7 19.2 9 19.2h0.2l0.2 4.5 0.3 4.5 0.3 0.2 0.2 0.3 1.8 2.3q1.7 2.2 3.7 11.2t0 15-2.5 5.5-0.8 0.5q-0.2 1-1.2 1t-3.5 4.2q-2.5 4.3-8.7 11-6.3 6.8-12.8 16.8t-7.5 14-0.7 5l0.2 1-1-0.2-1-0.3-0.2-0.3-0.3-0.2-0.3 0.2-0.2 0.3h-5l-0.2-0.3-0.3-0.2-0.3-0.2-0.2-0.3-0.2-0.3q-0.3-0.2-2-0.7-1.8-0.5-4-5-2.3-4.5-4.6-6.5-2.2-2-4.2-4.8l-2-2.7-0.2-0.3-0.3-0.2-0.5-1-0.5-1-0.3-0.2-0.2-0.3-1-0.5-1-0.5-0.2-0.3-0.3-0.2-0.3-0.2-0.2-0.3-1-0.3-1-0.2h-0.2q-0.3 0-5-9.8-4.8-9.7-10.3-22-5.5-12.2-6.5-12.2t-1.2-1.5q-0.3-1.5-5.3-11.5l-5-10-0.5-1.5-0.5-1.5-0.5-1-0.5-1-0.3-0.2-0.2-0.3-0.2-0.3-0.3-0.2-0.5 1-0.5 1-0.3 0.2-0.2 0.3-0.2 0.3-0.3 0.2-0.5 1-0.5 1-0.3 0.2-0.2 0.3-5 8.7q-5 8.8-6 8.8t-8.8 17q-7.7 17-11.7 29t-4.5 13l-0.5 1-0.5 1.5-0.5 1.5-0.3 0.2-0.2 0.3 0.2 0.3 0.3 0.2 0.3 1 0.2 1-1-0.2-1-0.3v-0.5l-0.2-0.5-0.3-0.5-0.5-1-0.5-1-0.5-1.5q-0.5-1.5-15.5-29t-19.3-37.5q-4.2-10-5.2-10t-3.8-8l-2.7-8-0.5-1-0.5-1-0.5-2-0.5-2-0.3-0.2-0.2-0.3-0.2-0.3-0.3-0.2-0.5 1-0.5 1-0.5 1-0.5 1-0.5 1.5-0.5 1.5-2.5 9q-2.5 9-2.8 18.5l-0.2 9.5h-0.5l-0.3 0.2-0.2 0.3-0.2 0.3-0.3 0.2-0.5-1-0.5-1h-0.5l-0.2-1-0.3-1v-5q0-5 0.5-9t3.5-16 11-31.5 24.3-47.5q16.2-28 17.2-28t6-7l5-7h0.2q0.3 0 0.6-0.5zm98.4 223q0.3-1.5 3.6-1.5 3.2 0 2.7 1.2-0.5 1.3-3.5 1.6-3 0.2-2.8-1.3z" fill="#fefefe" stroke="#fefefe"/>
  <g stroke="#000">
   <path d="m352 599l0.5-1 0.3 0.2 0.2 0.3 0.2 0.3 0.3 0.2 3.3 3.2q3.2 3.3 4.2 3.8l1 0.5 0.2 0.3 0.3 0.2 0.3 0.2 0.2 0.3 0.2 0.3 0.3 0.2 0.3 0.2 0.2 0.3 0.2 0.3 0.3 0.2 0.3 0.2 0.2 0.3 0.2 0.3 0.3 0.2 0.3 0.2 0.2 0.3 0.5 0.3 0.5 0.2 8 7.2q8 7.3 9 7.6 1 0.2 4.5 4 3.5 3.7 5 4.4 1.5 0.8 4.5 4 3 3.3 17.8 16 14.7 12.8 12.2 17.3t-4.8 7.7q-2.2 3.3-3.2 3.6-1 0.2-2 2.4-1 2.3-1.2 2.6l-0.3 0.2-0.3 0.2-0.2 0.3-0.2 0.3-0.3 0.2-0.3 0.2-0.2 0.3-0.2 0.3-0.3 0.2-0.3 0.5-0.2 0.5h-0.5l-0.5 1-0.5 1-0.3 0.2-0.2 0.3-0.2 0.3-0.3 0.2-0.3 0.2-0.2 0.3-0.2 0.3-0.3 0.2-0.3 0.2-0.2 0.3-0.2 0.3-0.3 0.2-0.3 0.2-0.2 0.3-0.2 0.3q-0.3 0.2-4 3.7-3.8 3.5-4 4.5-0.3 1-2.6 2.5-2.2 1.5-5.7 6t-6.5 6-3.2 2.5q-0.3 1-5.3 5.5t-10.7 7.7q-5.8 3.3-9.8 0-4-3.2-4-4.2t-1-1-1.2-1q-0.3-1-1.6-1.5-1.2-0.5-1.4-1.5-0.3-1-1.6-1.5-1.2-0.5-1.2-1.5t-13-11.5-13.2-11.5q-0.3-1-1.6-1.5-1.2-0.5-1.4-1.5-0.3-1-15-13.8l-14.8-12.7-0.2-0.3-0.3-0.2-0.3-0.2-0.2-0.3-0.2-0.3-0.3-0.2-0.3-0.2-0.2-0.3 0.2-0.3 0.3-0.2 0.3-0.2 0.2-0.3 1-0.5q1-0.5 10.5-9.2l9.5-8.8 0.5-0.2 0.5-0.3 1-0.5 1-0.5 0.2-0.3 0.3-0.2 0.3-0.2 0.2-0.3 0.2-0.3q0.3-0.2 2-2 1.8-1.7 5.3-5.4 3.5-3.8 4.5-3.8t6-6.2q5-6.3 11-14 6-7.8 7-8 1-0.3 3.2-3.6l2.3-3.2 0.5-1z"/>
   <path d="m841 600l1-0.5 0.2-0.3 0.3-0.2 0.3 0.2 0.2 0.3 13 16q13 16 15.5 19.3 2.5 3.2 4 3.2t5.5 4.8q4 4.7 5.2 5.4 1.3 0.8 1.6 1l0.2 0.3 0.2 0.3 0.3 0.2 0.3 0.2 0.2 0.3 0.2 0.3 0.3 0.2 0.3 0.2 0.2 0.3 0.2 0.3 0.3 0.2 0.3 0.2 0.2 0.3 0.2 0.3 0.3 0.2 0.3 0.2q0.2 0.3 0.7 0.6l0.5 0.2v0.2q0 0.3 0.5 0.6l0.5 0.2 2.5 1.5q2.5 1.5 3 2.7 0.5 1.3 1.5 1.6 1 0.2 3.5 3 2.5 2.7 3.5 3.2l1 0.5 0.2 0.3 0.3 0.2 0.3 1 0.2 1-0.5 0.2-0.5 0.3v1l-1.5 0.5q-1.5 0.5-4 3t-9.5 7.8q-7 5.2-7.2 6.2-0.3 1-10 9.8-9.8 8.7-12.8 12-3 3.2-4.5 3.4-1.5 0.3-2 1.6-0.5 1.2-1.5 1.4-1 0.3-1.5 1.6-0.5 1.2-9.7 9.7-9.3 8.5-11.6 9.3-2.2 0.7-10-5.6-7.7-6.2-15-12.2-7.2-6-7.4-7-0.3-1-3.6-3.5-3.2-2.5-3.4-3.5-0.3-1-1.6-1.5-1.2-0.5-1.4-1.5-0.3-1-3-3.5-2.8-2.5-4.3-4.7l-1.5-2.3-0.2-0.3-0.3-0.2-0.3-0.2-0.2-0.3-0.2-0.3-0.3-0.2-0.5-1-0.5-1-0.3-0.2-0.2-0.3-0.2-0.3-0.3-0.2h-0.5l-0.2-1-0.3-1-0.3-0.2-0.2-0.3-0.2-0.3-0.3-0.2-0.3-0.2-0.2-0.3-0.2-0.3-0.3-0.2-0.3-0.2-0.2-0.3-0.2-0.3-0.3-0.2-0.3-0.2q-0.2-0.3-5.4-7.6-5.3-7.2 11-21.7l16.2-14.5h0.5l0.3-0.2 0.2-0.3 0.2-0.3 0.3-0.2 0.3-0.2 0.2-0.3 0.2-0.3 0.3-0.2 0.3-0.2 0.2-0.3 0.2-0.3 0.3-0.2 0.3-0.2 0.2-0.3 0.2-0.3 0.3-0.2 0.3-0.2 0.2-0.3 1-0.3 1-0.2 0.2-1q0.3-1 1.6-1.5 1.2-0.5 1.2-1.5v-1h0.2q0.3 0 0.6-0.5l0.2-0.5h3l0.2-1 0.3-1 0.3-0.2 0.2-0.3 1-0.5 1-0.5 13.5-12q13.5-12 14.5-12.5z"/>
   <path d="m272 533l1 0.5 0.2 0.3 0.3 0.2 0.3 0.5 0.2 0.5h-0.5l-0.3 0.5-0.2 0.5-11 11.8q-11 11.7-12 12-1 0.2-1.2 1.2-0.3 1-0.6 1.5l-0.2 0.5h-1q-1 0-1 1v1l-1 0.2q-1 0.3-1 0.6v0.2l-15.5 13.2q-15.5 13.3-16.5 13.6-1 0.2-4.5 4-3.5 3.7-3.7 4l-0.3 0.2-0.3 0.2-0.2 0.3-0.5 0.3-0.5 0.2-0.5-0.2-0.5-0.3-0.2-0.3-0.3-0.2-0.3-0.2-0.2-0.3-1-0.5q-1-0.5-20.8-15.2-19.7-14.8-38-27.6l-18.2-12.7-0.2-0.3-0.3-0.2-0.3-0.2-0.2-0.3-0.2-0.3-0.3-0.2-0.3-0.2-0.2-0.3-1-0.5-1-0.5 0.2-0.3 0.3-0.2 0.3-0.2 0.2-0.3 1-0.5 1-0.5 0.2-0.3 0.3-0.2 0.3-0.2 0.2-0.3 0.2-0.3q0.3-0.2 4.6-3.2 4.2-3 4.2-4t1-1.2q1-0.3 11-8.8t17-14.8l7-6.2 0.5-0.2 0.5-0.3 0.2-0.3 0.3-0.2 0.3-0.2 0.2-0.3 0.2-0.3 0.3-0.2 4.5-4q4.5-4 4.8-5 0.2-1 1.2-1t4.5-3.8q3.5-3.7 6-6.2t5.5-1.5 9 4.7q6 3.8 6 4.8t5.2 4.5q5.3 3.5 9 5.5 3.8 2 3.8 3t6.5 5 9 6.8q2.5 2.7 9.3 8 6.7 5.2 12 9.4 5.2 4.3 6.2 4.8z"/>
   <path d="m1002.2 611.8l0.3 0.2 0.3 0.2 0.2 0.3 1 0.5 1 0.5 0.5 0.3 0.5 0.2 7.5 5.8q7.5 5.7 8.5 6 1 0.2 1.5 1.4 0.5 1.3 19 12.3t24 14 6.5 3.5l1 0.5 1.5 0.5 1.5 0.5 0.2 0.3 0.3 0.2 0.3 0.2 0.2 0.3-1 0.5-1 0.5-1 0.3-1 0.2v2l-1 0.2q-1 0.3-4.5 2-3.5 1.8-3.5 2.8t-6.5 5-6.5 5-7.2 6l-7.3 5-0.3 0.2-0.2 0.3-0.2 0.3-0.3 0.2-0.3 0.2-0.2 0.3v0.5l-0.5 0.2q-0.5 0.3-0.5 0.6v0.2h-3l-0.2 1-0.3 1-0.3 0.2-0.2 0.3-1 0.5q-1 0.5-4 2.2-3 1.8-3 2.8t-1 1.2q-1 0.3-1.5 1.6-0.5 1.2-7 6-6.5 4.7-9.5 8-3 3.2-4.2 3.7-1.3 0.5-5-0.3-3.8-0.7-30.8-16.4l-27-15.8v-0.2q0-0.3-7-4.8t-9-7.2q-2-2.8-4-3.6l-2-0.7-0.2-0.3-0.3-0.2h-0.5l-0.2-0.5-0.3-0.5h-0.5v-0.5l0.2-0.3 0.3-0.2 0.3-0.2 0.2-0.3 0.2-0.3 0.3-0.2 0.3-0.2 0.2-0.3 4.8-3.7q4.7-3.8 5-4.8 0.2-1 2-2 1.7-1 2-2 0.2-1 1.4-1.5 1.3-0.5 1.6-1.5 0.2-1 4-3.5 3.7-2.5 7-4.5 3.2-2 3.2-3t1-1 1-1 6.8-5.5q6.7-4.5 8-5 1.2-0.5 1.2-1.5t4.2-3.5q4.3-2.5 4.6-3.5 0.2-1 10.2-7.8 10-6.7 12.5-6 2.5 0.8 4.5 3 2 2.3 2.2 2.6z"/>
   <path d="m200.2 605.2l0.3-0.2h1l0.3 0.2 0.2 0.3 0.2 0.3 0.3 0.2 0.3 0.2 0.2 0.3 12 9q12 9 19.8 14.7 7.7 5.8 8 6.8 0.2 1 6.2 4.5t6.5 4.7q0.5 1.3 1.5 1.6 1 0.2 1 1.2t3.8 3.5q3.7 2.5 9.4 7 5.8 4.5 6.3 5.7 0.5 1.3 1.5 1.8l1 0.5 0.2 0.3 0.3 0.2v2l-0.3 1-0.2 1-11 7.8q-11 7.7-12 8.2l-1 0.5-0.2 0.3-0.3 0.2-0.3 0.2-0.2 0.3-1 0.5-1 0.5v0.5h-0.2q-0.3 0-4.3 2.5t-9.3 5.3q-5.2 2.7-15.7 9.2t-18.5 10-16-3-17-13.2q-9-6.8-9-7.8t-2.5-2.5l-2.5-1.5h-0.5l-0.3-1-0.2-1-1-0.2-1-0.3-0.2-0.3-0.3-0.2-0.3-0.2q-0.2-0.3-2.2-1.3t-2.5-2.3q-0.5-1.2-6-4.7t-5.5-4.5-7.8-6l-7.7-5-0.3-0.2-0.2-0.3-1-0.5-1-0.5-0.2-0.3-0.3-0.2-0.3-0.2-0.2-0.3-1-0.5-1-0.5 1-0.5 1-0.5 1-0.5 1-0.5 0.2-0.3 0.3-0.2 0.3-0.2 0.2-0.3 1-0.5q1-0.5 5.5-3t23-13.2q18.5-10.8 18.5-11.8t2.5-1.8q2.5-0.7 3.3-2 0.7-1.2 12.2-9.7l11.5-8.5 0.3-0.2 0.2-0.3 0.2-0.3z"/>
   <path d="m877.8 336.5l0.2-1.5h2l0.2 1 0.3 1 0.3 1 0.2 1h2l2.5 4.8q2.5 4.7 4 7.7t2.5 3.3q1 0.2 9.2 17.7 8.3 17.5 12.8 30.5t5 14l0.5 1 0.5 1.5 0.5 1.5 0.3 0.5 0.2 0.5-0.2 1q-0.3 1-6 10.5-5.8 9.5-6.8 9.5t-12.2 19q-11.3 19-15 25.5-3.8 6.5-4.8 6.7-1 0.3-8.5 12.6-7.5 12.2-8.5 12.2t-3.5 4.8l-2.5 4.7-0.2 0.3-0.3 0.2-0.3 0.2-0.2 0.3-0.2 0.3-0.3 0.2-0.5 1-0.5 1-0.3 0.2-0.2 0.3-0.2 0.3-0.3 0.2-0.5 1-0.5 1-0.5-3.5-0.5-3.5-0.3-0.2-0.2-0.3v-0.5l-0.2-1.5q-0.3-1.5-4.3-15.5t-13.5-34.5l-9.5-20.5-0.3-0.2-0.2-0.3-0.2-0.3-0.3-0.2-0.5-1-0.5-1-0.3-0.2-0.2-0.3-0.2-0.3-0.3-0.2-0.3 0.2-0.2 0.3-0.2 0.3-0.3 0.2-0.5 1-0.5 1-0.3 0.2-0.2 0.3-0.2 0.3-0.3 0.2-0.5 1q-0.5 1-9.8 16-9.2 15-10.2 15t-1.2 1q-0.3 1-8.8 14t-9.8 13.8q-1.2 0.7-5 6.4l-3.7 5.8-0.3 0.2-0.2 0.3-0.2 0.3-0.3 0.2-0.3 0.2-0.2 0.3-0.2 0.3-0.3 0.2-0.5 1-0.5 1h-0.5l-0.2-1-0.3-1-0.3-0.2-0.2-0.3-0.2-0.3-0.3-0.2v-2l0.3-0.2 0.2-0.3 0.2-0.3 0.3-0.2 0.3-0.2 0.2-0.3 0.2-0.3 0.3-0.2 0.3-0.2 0.2-0.3-1-0.5-1-0.5 1-0.3q1-0.2 1.2-2.7 0.3-2.5 5.6-13.7 5.2-11.3 10.7-23 5.5-11.8 6.5-11.8t1.2-1q0.3-1 8.8-16l8.5-15 0.3-0.2 0.2-0.3 0.2-0.3 0.3-0.2 0.3-0.2 0.2-0.3 0.2-0.3 0.3-0.2 0.5-1 0.5-1 0.3 0.2 0.2 0.3 0.2 0.3 0.3 0.2 0.3 0.2 0.2 0.3 0.2 0.3 0.3 0.2 0.3 0.2 0.2 0.3 0.5 0.3 0.5 0.2 1.2 2q1.3 2 1.8 3l0.5 1 0.3 0.2 0.2 0.3 0.2 0.3 0.3 0.2 0.3 0.2 0.2 0.3 0.2 0.3 0.3 0.2 0.5 1 0.5 1 0.3 0.2 0.2 0.3 0.2 0.3 0.3 0.2 0.5-1 0.5-1 0.3-0.2 0.2-0.3 0.2-0.3 0.3-0.2 0.5-1 0.5-1 5.5-8.5q5.5-8.5 18-31t18.5-36 6.3-14l0.2-0.5h0.5l0.5-1.5 0.5-1.5 0.5-1.5 0.5-1.5 0.3-0.2 0.2-0.3 0.2-0.3 0.3-0.2 2-4q2-4 2.5-5l0.5-1 0.3-1.5z"/>
   <path d="m755.8 208l0.2-1 1 0.2 1 0.3 13 8q13 8 19.2 13.3 6.3 5.2 6.6 6.2 0.2 1 1.4 1.5 1.3 0.5 1.6 1.5 0.2 1 5.2 4.5t7 6.3q2 2.7 2.2 3l0.3 0.2 0.3 0.2 0.2 0.3 0.2 0.3 0.3 0.2 0.3 1.5 0.2 1.5-0.2 1q-0.3 1-3.8 9t-9.5 22.5-22.5 47.5l-16.5 33-0.3 0.2-0.2 0.3-0.2 0.3-0.3 0.2-0.3 1.5-0.2 1.5-1-0.2-1-0.3-0.2-0.3-0.3-0.2-0.3-0.2-0.2-0.3-0.2-0.3-0.3-0.2-0.3-0.2-0.2-0.3-0.2-0.3-0.3-0.2-0.3-0.2q-0.2-0.3-5.7-5-5.5-4.8-5.7-5.8-0.3-1-9-8-8.8-7-9-8-0.3-1-3.6-2.8-3.2-1.7-11.7-6.7l-8.5-5-0.2-0.3-0.3-0.2 7.7-16.8q7.8-16.7 11.6-24.4 3.7-7.8 4.2-9.3l0.5-1.5 0.5-2 0.5-2 0.3-0.5 0.2-0.5h0.5l0.5-1 0.5-1 0.3-0.2 0.2-0.3 0.2-0.3 0.3-0.2 0.5-1.5 0.5-1.5 11-27q11-27 11.5-28l0.5-1 0.3-1z"/>
   <path d="m435.5 208l1.5-0.5h2l0.2 0.3 0.3 0.2 7.7 19.2q7.8 19.3 11 27 3.3 7.8 3.8 9.3l0.5 1.5 0.5 1.5 0.5 1.5 0.3 0.5 0.2 0.5v0.2q0 0.3 0.5 0.6l0.5 0.2 0.2 1q0.3 1 0.8 2l0.5 1 0.3 0.2 0.2 0.3 0.2 0.3 0.3 0.2 12 26q12 26 12 26.5v0.5l-0.3 0.2q-0.2 0.3-8 4.6-7.7 4.2-11.4 6.2-3.8 2-4 3-0.3 1-6 5-5.8 4-7.8 7t-9.8 9.5l-7.7 6.5-0.5 1-0.5 1-0.3 0.2-0.2 0.3-1 0.3-1 0.2-0.2-1-0.3-1-0.5-1-0.5-1-0.5-1q-0.5-1-6-12l-5.5-11-0.5-1-0.5-1-0.5-1.5-0.5-1.5-0.5-1-0.5-1h-0.7q-0.3 0-9-19.2-8.8-19.3-16.8-38l-8-18.8-0.2-0.5q-0.3-0.5-0.6-0.5h-0.2l-0.2-0.5q-0.3-0.5-0.6-0.5h-0.2l-0.8-3q-0.7-3 11-14.8 11.8-11.7 12.8-12 1-0.2 1-1.2t3.8-3.5q3.7-2.5 4-3.5 0.2-1 3.2-2t3-2 8-5.2q8-4.3 9.5-4.8z"/>
   <path d="m315 336l0.5-1 0.3 0.2 0.2 0.3 0.2 0.3 0.3 0.2 0.5 1 0.5 1 0.5 1.5 0.5 1.5 5 10q5 10 5.3 11.5 0.2 1.5 1.2 1.5t6.5 12.2q5.5 12.3 10.3 22 4.7 9.8 5 9.8h0.2v0.5l0.2 0.3 0.3 0.2 0.3 0.2 0.2 0.3 0.2 0.3 0.3 0.2 0.5 1.5 0.5 1.5 0.3 0.2 0.2 0.3 0.2 0.3 0.3 0.2 0.3 0.2 0.2 0.3 0.2 0.3 0.3 0.2 8.7 14.8q8.8 14.7 9 15l0.3 0.2 0.3 0.2 0.2 0.3 0.2 0.3 0.3 0.2 0.5 1 0.5 1 0.3 0.2 0.2 0.3 0.2 0.3 0.3 0.2 0.3 0.2 0.2 0.3h1l0.2-0.3 0.3-0.2 0.5-1.5 0.5-1.5 0.3-0.2 0.2-0.3 0.2-0.3 0.3-0.2 0.5-1q0.5-1 1.8-3l1.2-2 0.5-0.2 0.5-0.3v-1h2l0.2 0.3 0.3 0.2 0.3 0.2 0.2 0.3 0.2 0.3 0.3 0.2 0.3 0.2 0.2 0.3 0.2 0.3 0.3 0.2 0.3 0.2 0.2 0.3 0.2 0.3 0.3 0.2 14.3 24.2q14.2 24.3 15.2 24.6 1 0.2 3.2 6.2 2.3 6 7.3 17.5t5.3 11.7l0.2 0.3 0.2 0.3 0.3 0.2 0.5 2.5 0.5 2.5 0.3 0.2 0.2 0.3-1 0.5-1 0.5-1 0.5-1 0.5v0.5h-0.5l-0.5-1-0.5-1-0.5-1-0.5-1-0.3-0.2-0.2-0.3-0.2-0.3-0.3-0.2-0.5-1q-0.5-1-1.8-1.5-1.2-0.5-4.4-6-3.3-5.5-5-6.5-1.8-1-2-2.5-0.3-1.5-10.6-16.7-10.2-15.3-16.2-25.6-6-10.2-7-10.2t-1.8-2l-0.7-2-0.3-0.2-0.2-0.3-0.2-0.3-0.3-0.2-0.5-1-0.5-1-0.3-0.2-0.2-0.3-0.2-0.3-0.3-0.2-0.3 0.2-0.2 0.3-0.2 0.3-0.3 0.2-0.3 0.2-0.2 0.3-0.2 0.3-0.3 0.2-0.5 1.5-0.5 1.5-6 11.5q-6 11.5-10.5 23.5t-8 22.5-4 16l-0.5 5.5h-0.5l-0.2-1-0.3-1-0.5-1-0.5-1-0.3-0.2-0.2-0.3-0.2-0.3-0.3-0.2-0.3-0.2-0.2-0.3-0.2-0.3-0.3-0.2-0.5-1q-0.5-1-6.2-9.2-5.8-8.3-10.8-16.6-5-8.2-6-8.2t-1.2-1q-0.3-1-21.6-35l-21.2-34-0.2-0.5q-0.3-0.5-0.6-0.5h-0.2l0.2-1 0.3-1 0.5-1.5 0.5-1.5 0.5-1q0.5-1 4.5-13t11.7-29q7.8-17 8.8-17t6-8.8l5-8.7 0.2-0.3 0.3-0.2 0.5-1 0.5-1 0.3-0.2 0.2-0.3 0.2-0.3 0.3-0.2 0.5-1z"/>
  </g>
  <g fill="#fefefe" stroke="#fefefe">
   <path d="m468 268.2v-0.2l14.2 28.5q14.3 28.5 15.6 31.5 1.2 3 2.2 3t4 6.8q3 6.7 10 19.7t8 13.3q1 0.2 3.5 6.7t4 6.5 2 1.2q0.5 1.3-0.3 2-0.7 0.8 7.6 15.3 8.2 14.5 9.2 14.5t1 2 1 2 3.8 6q2.7 6-6 12.8-8.8 6.7-10.3 7-1.5 0.2-1.5 1.2t-16 11.5-16.5 11.7q-0.5 1.3-1.5 1.6-1 0.2-1 1.2t-8.2 7q-8.3 6-14 12.5-5.8 6.5-9.6 10-3.7 3.5-4.7 5t-1.3 1.7l-0.2 0.3-0.2 0.3-0.3 0.2-0.3 0.2-0.2 0.3-0.2 0.3-0.3 0.2-0.3 0.2-0.2 0.3-0.2 0.3-0.3 0.2-0.3 0.2-0.2 0.3-0.2 0.3-0.3 0.2-0.5 1-0.5 1h-0.5l-0.2-1-0.3-1-0.3-0.2-0.2-0.3v-3.5h2l0.2-1 0.3-1 0.3-0.2 0.2-0.3 0.2-0.3q0.3-0.2 11.8-12.7t15.2-16q3.8-3.5 3.8-4.5t-1-1-1.5-1.2q-0.5-1.3-6-11.6-5.5-10.2-6.5-10.2t-1-1.5-1-1.5-2-3-2-3-3-5-3-5-4.5-8-4.5-8-10.2-18.5l-9.3-18.5-0.3-0.2-0.2-0.3-0.2-0.3-0.3-0.2-0.5-1-0.5-1-0.3 0.2-0.2 0.3-0.2 0.3-0.3 0.2-0.3 0.2-0.2 0.3-0.2 0.3-0.3 0.2-0.3 0.2-0.2 0.3-0.2 0.3-0.3 0.2-0.3 0.2-0.2 0.3-1.5 2.3q-1.5 2.2-2.5 2.2t-1.5 1.2q-0.5 1.3-1.5 1.6-1 0.2-1.5 2.2t-4.3 5.5q-3.7 3.5-5 6-1.2 2.5-3.4 4.5-2.3 2-12.3 16.5t-10.3 16l-0.2 1.5h-0.2q-0.3 0-0.6 0.5l-0.2 0.5-1.2 2q-1.3 2-1.8 3l-0.5 1-0.3 0.2-0.2 0.3-0.2 0.3-0.3 0.2-0.5 1.5-0.5 1.5-0.3 0.2-0.2 0.3h-1l-0.2-0.3-0.3-0.2-0.3-0.2-0.2-0.3-0.2-0.3-0.3-0.2-0.5-1-0.5-1-0.3-0.2-0.2-0.3-0.2-0.3-0.3-0.2-0.3-0.2q-0.2-0.3-9-15l-8.7-14.8-0.3-0.2-0.2-0.3-0.2-0.3-0.3-0.2-0.3-0.2-0.2-0.3-0.2-0.3-0.3-0.2-0.5-1.5-0.5-1.5-0.3-0.2-0.2-0.3-0.2-0.3-0.3-0.2-0.3-0.2-0.2-0.3v-0.5l1 0.2 1 0.3 0.2 0.3 0.3 0.2 0.3 0.2 0.2 0.3 1 0.5 1 0.5 0.2 0.3 0.3 0.2 0.5 1 0.5 1 0.3 0.2 0.2 0.3 2 2.7q2 2.8 4.2 4.8 2.3 2 4 5 1.8 3 6.3 3.8 4.5 0.7 5.5 1l1 0.2 0.2-1q0.3-1 2.3-1.5t1.3-1q-0.8-0.5 6.4-11.5 7.3-11 13.6-17.8 6.2-6.7 8.7-11 2.5-4.2 3.5-4.2t1.2-1q0.3-1 0.8-0.5t2.5-5.5 0-15-3.7-11.2l-1.8-2.3-0.2-0.3-0.3-0.2-0.3-4.5-0.2-4.5h0.5l0.5 1 0.5 1 0.5 1.5 0.5 1.5 0.5 1 0.5 1 5.5 11q5.5 11 6 12l0.5 1 0.5 1 0.5 1 0.3 1 0.2 1 1-0.2 1-0.3 0.2-0.3 0.3-0.2 0.5-1 0.5-1 7.7-6.5q7.8-6.5 9.8-9.5t7.8-7q5.7-4 6-5 0.2-1 4-3 3.7-2 11.4-6.2 7.8-4.3 8-4.6l0.3-0.2v-0.5q0-0.5-12-26.5l-12-26-0.3-0.2-0.2-0.3-0.2-0.3-0.3-0.2-0.5-1q-0.5-1-1.2-2.5l-0.8-1.5 2-0.2 2-0.3v-0.3zm-95.8 163q0.3-0.2 0.6 0 0.2 0.3-0.3 0.3t-0.3-0.3zm9.8 0.8v-1h1q1 0 1.2 1 0.3 1 0.6 2l0.2 1-1-0.2-1-0.3-0.2-0.3-0.3-0.2-0.3 0.2-0.2 0.3h-5l-1-0.3q-1-0.2-0.5-1.4 0.5-1.3 3.5-0.6 3 0.8 3-0.2z"/>
   <path d="m910 198l0.5 1 0.3 0.2 0.2 0.3 1 0.3 1 0.2v2l-1-0.2-1-0.3-0.2-0.3-0.3-0.2-0.3 1.5-0.2 1.5h-2l-0.2-0.5-0.3-0.5h-0.5l-0.2-0.5-0.3-0.5h-0.5l-0.2-0.5-0.3-0.5-0.3-0.2q-0.2-0.3-9.2-11.6-9-11.2-10-11.2t-1.2-1q-0.3-1-11.8-12l-11.5-11-0.3-0.2-0.2-0.3-0.2-0.3-0.3-0.2-0.3-0.2-0.2-0.3-0.2-0.3-0.3-0.2-0.3-0.2-0.2-0.3-0.2-0.3-0.3-0.2-0.3-0.2-0.2-0.3-0.2-0.3-0.3-0.2-0.5 1-0.5 1-0.5 1-0.5 1-0.5 2q-0.5 2-2 7t-11 29.5-16.5 42l-7 17.5-0.3 0.2-0.2 0.3-0.2 0.3-0.3 0.2-0.3 0.2-0.2 0.3 0.2 0.3 0.3 0.2 0.3 0.5 0.2 0.5-0.5 0.2-0.5 0.3-0.2 0.3-0.3 0.2h-0.5l-0.2-1.5-0.3-1.5-0.3-0.2-0.2-0.3-0.2-0.3-0.3-0.2-0.3-0.2q-0.2-0.3-2.2-3-2-2.8-7-6.3t-5.2-4.5q-0.3-1-1.6-1.5-1.2-0.5-1.4-1.5-0.3-1-6.6-6.2-6.2-5.3-19.2-13.3l-13-8-1-0.3-1-0.2-0.2 1-0.3 1-0.5 1q-0.5 1-11.5 28l-11 27-0.5 1.5-0.5 1.5-0.3 0.2-0.2 0.3-0.2 0.3-0.3 0.2-0.5 1-0.5 1h-0.5l-0.2-0.5-0.3-0.5-0.3-0.2-0.2-0.3-0.2-0.3-0.3-0.2h-0.5l0.2-1.5 0.3-1.5 0.5-1 0.5-1 0.5-1 0.5-1 0.7-3.5q0.8-3.5 1.8-3.5t18.2-46.5q17.3-46.5 29.6-84 12.2-37.5 15-36 2.7 1.5 3 2.5 0.2 1 6.4 5 6.3 4 6.6 5 0.2 1 9.7 8.2 9.5 7.3 19 15.8t25.3 23.2q15.7 14.8 26.2 26.3t12.8 15.5q2.2 4 3.2 4t1.8 1.5q0.7 1.5 1.2 2.5z"/>
   <path d="m466 262.5l0.5 1.5 0.5 1 0.5 1 0.3 1 0.2 1v0.5l-1 0.5-1 0.5-0.2 0.3-0.3 0.2h-0.5l-0.2-0.5-0.3-0.5h-0.5l-0.2-0.5-0.3-0.5-0.5-1.5-0.5-1.5-0.5-1.5q-0.5-1.5-3.8-9.3-3.2-7.7-11-27l-7.7-19.2-0.3-0.2-0.2-0.3h-2l-1.5 0.5q-1.5 0.5-9.5 4.8-8 4.2-8 5.2t-3 2-3.2 2q-0.3 1-4 3.5-3.8 2.5-3.8 3.5t-1 1.2q-1 0.3-12.8 12-11.7 11.8-10.4 14.6l1.2 2.7 0.2 0.3 0.3 0.2 0.3 1 0.2 1-1-0.2-1-0.3-0.2-0.3-0.3-0.2-0.3-0.2-0.2-0.3-2-0.5-2-0.5-0.2-0.3-0.3-0.2-0.3 0.2-0.2 0.3-0.2 0.3-0.3 0.2-0.3 0.2-0.2 0.3-0.2 0.3-0.3 0.2-0.3 0.2-0.2 0.3-0.2 0.3-0.3 0.2-0.3 0.2-0.2 0.3-1 0.3-1 0.2v-2l1-0.2 1-0.3 0.2-0.3 0.3-0.2 0.3-0.2 0.2-0.3 0.2-0.3 0.3-0.2 0.5-1q0.5-1 1-1.5t1-4-5-16.5-9.2-24q-3.8-11-4.8-11t-2.5-6-2.5-6-1.2-3q-0.3-3-5.3-17.5l-5-14.5-0.5-1-0.5-1-0.5-1-0.5-1-0.3 0.2-0.2 0.3-0.2 0.3-0.3 0.2-0.3 0.2-0.2 0.3-0.2 0.3-0.3 0.2-0.3 0.2-0.2 0.3-0.2 0.3-0.3 0.2-0.3 0.2-0.2 0.3-1 0.3q-1 0.2-1.2 1.2-0.3 1-6.6 6-6.2 5-14.2 14.5t-9 9.5-1.2 1q-0.3 1-4 5.8-3.8 4.7-7.3 10.4l-3.5 5.8-1 0.2-1 0.3v0.5l-0.5-0.2-0.5-0.3h-4l-1 0.3-1 0.2v-2l1-0.2 1-0.3 0.2-0.3 0.3-0.2 0.3-0.2 0.2-0.3 0.2-0.3 0.3-0.2 0.5-1 0.5-1 1.7-2.8q1.8-2.7 2.8-3 1-0.2 6.5-8 5.5-7.7 16.5-20.2t12-12.8q1-0.2 1.5-1.4 0.5-1.3 1.5-1.6 1-0.2 4.5-4 3.5-3.7 11.3-10.4 7.7-6.8 8-7.8 0.2-1 3.2-2.5t6.5-5.3q3.5-3.7 7.5-6.4 4-2.8 4.5-4 0.5-1.3 2-1.6 1.5-0.2 1.5-1.2t5.8-5q5.7-4 6.4-5.2 0.8-1.3 2.3-1.6 1.5-0.2 1.5-1.2t6-4.5 6-4.5 1-1 18.8 52.5q17.7 52.5 31.2 87t14 36z"/>
   <path d="m911 201h1v0.2q0 0.3 0.5 0.6l0.5 0.2 10.2 14q10.3 14 18.8 28.5t8.8 15.5q0.2 1 1.2 1t12.2 23.5q11.3 23.5 15.8 40t4.8 25l0.2 8.5h-0.5l-0.5 1.5-0.5 1.5-0.3-0.2-0.2-0.3-0.2-0.3-0.3-0.2h-0.5l-0.2-5q-0.3-5-1.6-13.5-1.2-8.5-2-9l-0.7-0.5v-1l-0.3-1-0.2-1-2-0.2-2-0.3-0.2-0.3-0.3-0.2-0.3-0.2-0.2-0.3-0.2-0.3-0.3-0.2v2l0.3 0.2 0.2 0.3-1 0.5-1 0.5 0.2 0.3q0.3 0.2 0.8 0.7t-0.8 1.3q-1.2 0.7-3 5.4-1.7 4.8-3 5.8-1.2 1-1.7 3.5t-1.5 2.5-2.5 4.8q-1.5 4.7-2.3 7-0.7 2.2-1.4 3-0.8 0.7-1.8 3.4-1 2.8-2 3-1 0.3-1 2.6 0 2.2-1 2.2t-4.8 8q-3.7 8-4.4 8.8-0.8 0.7-2 4-1.3 3.2-2.6 4-1.2 0.7-2 2.4-0.7 1.8 0 2.3 0.8 0.5 0.8 1.5t-1.5 1.2q-1.5 0.3-3.3 3.6-1.7 3.2-2.4 4-0.8 0.7-0.3 2l0.5 1.2-1-0.2-1-0.3-0.2-0.3-0.3-0.2-0.5 1-0.5 1-0.3 0.2-0.2 0.3-0.2 0.3-0.3 0.2-0.3 0.2-0.2 0.3-0.2 0.3-0.3 0.2h-0.5l-0.2-0.5-0.3-0.5-0.5-1.5-0.5-1.5-0.5-1q-0.5-1-5-14t-12.8-30.5q-8.2-17.5-9.2-17.7-1-0.3-2.5-3.3t-4-7.7l-2.5-4.8h-2l-0.2-1-0.3-1-0.3-1-0.2-1h-2l-0.2 1.5-0.3 1.5-0.5 1q-0.5 1-2.5 5l-2 4-0.3 0.2-0.2 0.3-0.2 0.3-0.3 0.2-0.5 1.5-0.5 1.5-0.5 1.5-0.5 1.5h-0.5l-0.2-1.5-0.3-1.5v-3l0.5-2q0.5-2 2-5t2-7-3.5-10.5l-4-6.5v-4l-0.3-0.2-0.2-0.3-0.2-0.3-0.3-0.2-0.3-1.5-0.2-1.5h0.5l0.3 0.2 0.2 0.3 0.2 0.3 0.3 0.2 0.3 0.2 0.2 0.3 0.2 0.3 0.3 0.2 0.5 1.5 0.5 1.5 0.3 1.5 0.2 1.5 1.2 0.5q1.3 0.5 1.6 2 0.2 1.5 1.2 1.5t1.2 1q0.3 1 0.8 2l0.5 1 0.5 1 0.5 1 0.3 0.2 0.2 0.3 0.2 0.3 0.3 0.2 0.3 0.2 0.2 0.3 0.2 0.3 0.3 0.2 0.3 0.2 0.2 0.3 0.2 0.3 0.3 0.2 0.3 0.2 0.2 0.3 0.2 0.3 0.3 0.2 0.5-2 0.5-2 0.3-0.2 0.2-0.3 0.2-0.3 0.3-0.2 0.5-1q0.5-1 13-33t17.5-45.5 6.5-19.5 0.2-8.5q-1.2-2.5-2.2-2.5t-4.2-5l-3.3-5-0.3-1-0.2-1-1-0.2-1-0.3-0.2-0.3-0.3-0.2-0.3-1-0.2-1 1.8 1q1.7 1 2-0.5 0.2-1.5 1.2-1.5zm63.2 125.8q-0.2-0.3 0-0.6 0.3-0.2 0.3 0.3t-0.3 0.3z"/>
   <path d="m162.8 495h0.2l1 0.2 1 0.3 1.5-0.3q1.5-0.2 1.5 0.8t-1 1.2q-1 0.3-0.8 0.6l0.3 0.2 0.3 1 0.2 1-7 6.2q-7 6.3-17 14.8t-11 8.8q-1 0.2-1 1.2t-4.2 4q-4.3 3-4.6 3.2l-0.2 0.3-0.2 0.3-0.3 0.2-0.3 0.2-0.2 0.3-1 0.5-1 0.5-0.2 0.3-0.3 0.2-0.3 0.2-0.2 0.3 1 0.5 1 0.5 0.2 0.3 0.3 0.2 0.3 0.2 0.2 0.3 0.2 0.3 0.3 0.2 0.3 0.2 0.2 0.3 18.2 12.7q18.3 12.8 38 27.6 19.8 14.7 20.8 15.2l1 0.5 0.2 0.3 0.3 0.2 0.3 0.2 0.2 0.3 0.5 0.3 0.5 0.2-0.2 1-0.3 1-0.3 0.5-0.2 0.5h-0.5l-0.3 0.2-0.2 0.3-0.2 0.3-0.3 0.2-11.5 8.5q-11.5 8.5-12.2 9.7-0.8 1.3-3.3 2-2.5 0.8-2.5 1.8t-18.5 11.8q-18.5 10.7-23 13.2t-5.5 3l-1 0.5-0.2 0.3-0.3 0.2-0.3 0.2-0.2 0.3-1 0.5-1 0.5-1 0.5-1 0.5 1 0.5 1 0.5 0.2 0.3 0.3 0.2 0.3 0.2 0.2 0.3 1 0.5 1 0.5 0.2 0.3 0.3 0.2 7.7 5q7.8 5 7.8 6t5.5 4.5 6 4.7q0.5 1.3 2.5 2.3t2.2 1.3l0.3 0.2 0.3 0.2 0.2 0.3 1 0.3 1 0.2 0.2 1 0.3 1h0.5l0.2 1 0.3 1 0.3 0.2 0.2 0.3-0.2 0.3-0.3 0.2-0.5 1-0.5 1h-0.5l-0.5-0.2-0.5-0.3v-0.5l-0.5-0.2-0.5-0.3-1-0.5-1-0.5-0.2-0.3-0.3-0.2-0.3-0.2-0.2-0.3-0.2-0.3-0.3-0.2-0.3-0.2q-0.2-0.3-2.7-1.6-2.5-1.2-2.5-2.2t-1-1.2q-1-0.3-12-8.8t-13-10.8q-2-2.2-3.5-2.4-1.5-0.3-2-1.6-0.5-1.2-22.5-17.7t-22-17.5-2-1.5-2.2-1.5q-0.3-1-3.6-3.2-3.2-2.3-5.7-5-2.5-2.8-7.5-6-5-3.3-8-6.6-3-3.2-10.5-8.4l-7.5-5.3-0.2-0.3-0.3-0.2-0.3-0.2-0.2-0.3-0.2-0.3-0.3-0.2-0.3-0.2-0.2-0.3-0.2-0.3-0.3-0.2-0.3-0.2-0.2-0.3-1-0.5-1-0.5 1-0.5 1-0.5 1.5-0.5 1.5-0.5 1.5-0.5q1.5-0.5 6-2t19-8 29-14.5 24.7-15.3q10.3-7.2 15.6-10.7 5.2-3.5 5.2-4.5t6-5.2q6-4.3 8.5-7 2.5-2.8 3.5-2.8t1-1 1-1.2q1-0.3 9-7l8-6.8 0.5-0.2q0.5-0.3 0.5-0.6v-0.2l0.2-0.5q0.3-0.5 0.6-0.5z"/>
   <path d="m1031.2 495.8l0.3 0.2 0.3 0.2q0.2 0.3 0.7 0.6l0.5 0.2v0.2q0 0.3 0.5 0.6l0.5 0.2 3 1.5q3 1.5 3 2.5t1.2 1.5q1.3 0.5 1.6 1.5 0.2 1 15.2 12.8 15 11.7 16 12 1 0.2 1 1.2t2 1.5 2 1.5 1.2 1.5q1.3 0.5 1.6 1.5 0.2 1 3.2 2t3 2 6.5 4.5 6.5 4.5 5.8 4q5.7 3 25.4 12.8 19.8 9.7 28.3 12.7t10.5 3.5l2 0.5 1 0.5 1 0.5 0.2 0.3 0.3 0.2 0.3 1 0.2 1-1 0.2-1 0.3-0.2 0.3-0.3 0.2-0.3 0.2-0.2 0.3-0.2 0.3-0.3 0.2-0.3 0.2-0.2 0.3-0.2 0.3-0.3 0.2-0.3 0.2q-0.2 0.3-3.2 2-3 1.8-3.2 2.8-0.3 1-2 1.5-1.8 0.5-2 1.5-0.3 1-6 5-5.8 4-5.8 5t-16 12.5-16.2 12.5q-0.3 1-14.6 11.5-14.2 10.5-14.4 11.5-0.3 1-8.6 7.2-8.2 6.3-17.2 13-9 6.8-9 7.8t-6.5 5.2l-6.5 4.3-0.2 0.3-0.3 0.2-0.3 0.2-0.2 0.3-0.2 0.3-0.3 0.2-0.3 0.2-0.2 0.3-0.2 0.3-0.3 0.2h-0.5l-0.5 0.2-0.5 0.3v0.5h-0.5v-2l0.3-0.2 0.2-0.3-1-0.3-1-0.2 0.2-1 0.3-1h1l0.3-0.5 0.2-0.5v-0.5l0.2-0.3 0.3-0.2 0.3-0.2 0.2-0.3 0.2-0.3 0.3-0.2 7.3-5q7.2-5 7.2-6t6.5-5 6.5-5 3.5-2.8q3.5-1.7 4.5-2l1-0.2v-2l1-0.2 1-0.3 1-0.5 1-0.5-0.2-0.3-0.3-0.2-0.3-0.2-0.2-0.3-1.5-0.5-1.5-0.5-1-0.5q-1-0.5-6.5-3.5t-24-14-19-12.3q-0.5-1.2-1.5-1.4-1-0.3-8.5-6l-7.5-5.8v-0.5l0.2-0.3 0.3-0.2 0.3-0.2 0.2-0.3 0.2-0.3 0.3-0.2 0.3-0.2q0.2-0.3-1.3-0.6-1.5-0.2-1.3-1.2 0.3-1-0.4-1.5-0.8-0.5 0.4-3.5 1.3-3 3.6-5.8 2.2-2.7 3-4.4 0.7-1.8 3.4-4.6l2.8-2.7 1-0.3 1-0.2 0.2-1 0.3-1 0.5-1 0.5-1 0.3-0.2 0.2-0.3 0.2-0.3 0.3-0.2 0.3-1 0.2-1 14-10.8q14-10.7 24-17.2t11-7l1-0.5 0.2-0.3 0.3-0.2 0.3-0.2 0.2-0.3 0.2-0.3 0.3-0.2 0.3-0.2 0.2-0.3 1-0.5 1-0.5-1-0.5-1-0.5-0.2-0.3-0.3-0.2-0.3-0.2-0.2-0.3-1-0.5q-1-0.5-1.5-1.8-0.5-1.2-19-15.7t-19.5-16.3l-1-1.7-1-0.3q-1-0.2-1-1.2v-1l-0.2-1-0.3-1-0.3-0.2-0.2-0.3 0.2-0.3 0.3-0.2-0.3-1.5q-0.2-1.5 0.8-1.3 1 0.3 1.2 0.6z"/>
  </g>
  <path d="m536.5 349.8l0.5 0.2v0.2q0 0.3 0.5 0.6l0.5 0.2v0.2q0 0.3 0.5 0.6l0.5 0.2 27.2 63.5q27.3 63.5 27.8 65l0.5 1.5 0.5 1 0.5 1 0.5 1 0.5 1 0.5 1.5 0.5 1.5 0.5-1 0.5-1 0.5-1.5 0.5-1.5 0.5-1 0.5-1 0.3-0.2 0.2-0.3 0.2-0.3q0.3-0.2 26.3-61.7l26-61.5 0.3-0.2 0.2-0.3 0.5-0.3 0.5-0.2v2q0 2 1 2t1.2 1q0.3 1 0.6 1.2l0.2 0.3 1 0.3 1 0.2v-1q0-1 1-1.2l1-0.3 0.2-0.3 0.3-0.2 0.3-1 0.2-1h2l-0.2 1-0.3 1-0.3 0.2-0.2 0.3-0.2 0.3-0.3 0.2v1.5q0 1.5 0.3 1.5h0.2l-29.8 70q-29.7 70 10.3 163t40.5 94l0.5 1v2l-0.3 0.2-0.2 0.3-1 0.3-1 0.2-0.2 1-0.3 1-0.3 0.2-0.2 0.3-1 0.3-1 0.2-0.2 1-0.3 1-0.3 0.2-0.2 0.3-1.5 0.3-1.5 0.2-0.2-1.5-0.3-1.5-0.3-0.2-0.2-0.3-0.2-0.3-0.3-0.2-0.5-1q-0.5-1-37.5-87l-37-86-0.5-1.5-0.5-1.5-0.5-1-0.5-1-0.5 2-0.5 2-0.3 0.2-0.2 0.3-0.2 0.3-0.3 0.2-37 86q-37 86-37.5 87l-0.5 1-0.3 0.2-0.2 0.3-0.2 0.3-0.3 0.2-0.3 1.5-0.2 1.5-1-0.2-1-0.3-0.2-0.3-0.3-0.2-0.3-0.2-0.2-0.3-0.2-0.3-0.3-0.2-0.3-0.2-0.2-0.3-0.2-0.3-0.3-0.2-0.3-0.2-0.2-0.3-0.2-0.3-0.3-0.2-0.3-0.2-0.2-0.3-0.2-0.3-0.3-0.2-0.3-0.2-0.2-0.3-0.2-0.3-0.3-0.2-0.3-0.2-0.2-0.3-1-0.5-1-0.5 0.2-0.3 0.3-0.2 0.5-1.5q0.5-1.5 39-91t40-94-27.8-73l-29.2-68.5-0.2-1.5q-0.3-1.5-0.8-4t-1.5-6l-1-3.5-0.3-2.5q-0.2-2.5 0.8-2.5h1l0.5-1.2q0.5-1.3 1.5-1.6 1-0.2 1 1.6 0 1.7 1 2 1 0.2 1.5 1.4 0.5 1.3 1 1.6zm119.3 13.4l0.2 0.3 0.2 0.3 0.3 0.2v1l-0.5 1-0.5 1-0.3 0.2-0.2 0.3 0.2 0.3 0.3 0.2 0.3 0.2 0.2 0.3-1.5 0.5-1.5 0.5-0.2 0.3-0.3 0.2v-2l0.5-1 0.5-1 0.3-0.2 0.2-0.3 0.2-0.3 0.3-0.2 0.5-1q0.5-1 0.8-0.8zm3 3.8l-0.3 1-0.3 0.2-0.2 0.3-0.2 0.3-0.3 0.2-0.3-1.5q-0.2-1.5 0.8-1.5t0.8 1z" fill="#f9f9f9" stroke="#f9f9f9"/>
  <g fill="#fafafa" stroke="#fafafa">
   <path d="m664 364.8v0.2h-0.2q-0.3 0-0.3-1.5v-1.5l0.3-0.2 0.2-0.3-1-0.3q-1-0.2-1 1.3t-1 1.5h-1l-0.2 1-0.3 1-0.5 1-0.5 1-0.3 0.2-0.2 0.3-0.2 0.3-0.3 0.2v-1.5q0-1.5 0.3-3l0.2-1.5-1 0.2-1 0.3 0.2 0.3 0.3 0.2v1l-0.5 1-0.5 1-0.3 0.2-0.2 0.3 0.2 0.3 0.3 0.2 0.3 0.2 0.2 0.3-1.5 0.5-1.5 0.5-0.2 0.3-0.3 0.2v-2l0.5-1 0.5-1 0.3-0.2 0.2-0.3 0.2-0.3 0.3-0.2 0.3-4 0.2-4 59.5-138.8q59.5-138.7 63.7-150 4.3-11.2 2.3-14.2t-3-9.5 0.7-11.7q1.8-5.3 5.8-9.3t10-5.5 11.5 1 8.3 5.8q2.7 3.2 3.7 6.2t0.5 9-3 11-6.8 7.8q-4.2 2.7-9.4 4-5.3 1.2-68.3 147.7t-64.7 150.3q-1.8 3.7-1.8 4z"/>
   <path d="m515 297.5l20.5 47.5 0.5 1 0.5 1 0.5 1 0.5 1 0.3 0.2 0.2 0.3 0.2 0.3 0.3 0.2 0.3 1 0.2 1-1-0.2-1-0.3-0.2-0.3-0.3-0.2-0.3-1-0.2-1h-1.5q-1.5 0-1.5-1.5v-1.5h-3l-0.2 2-0.3 2-0.5-1-0.5-1v3l1.5 3q1.5 3 2 4l0.5 1v4l-0.3 1.5-0.2 1.5h-0.5l-0.5-1-0.5-1-0.5-1-0.5-1-0.5-2-0.5-2-0.3-0.2q-0.2-0.3-63.4-147-63.3-146.8-66.6-147.6-3.2-0.7-9.2-3-6-2.2-8.8-7.2-2.7-5-2.7-14t4.3-14.2q4.2-5.3 10.7-6.8t12.5 1.5 8.8 6.7q2.7 3.8 3.2 13.3t-1.2 12.3q-1.8 2.7-2.6 5-0.7 2.2 40.3 97.7t61.5 143zm17.2 46.3q-0.2-0.3 0-0.6 0.3-0.2 0.3 0.3t-0.3 0.3z"/>
  </g>
  <g fill="#fdfdfd" stroke="#fdfdfd">
   <path d="m378.2 451.2l0.3-0.2 0.3 0.2 0.2 0.3 0.2 0.3 0.3 0.2 0.5 1 0.5 1 0.3 0.2 0.2 0.3 0.2 0.3 0.3 0.2 0.7 2q0.8 2 1.8 2t7 10.2q6 10.3 16.2 25.6 10.3 15.2 10.6 16.7 0.2 1.5 2 2.5 1.7 1 5 6.5 3.2 5.5 4.4 6 1.3 0.5 1.8 1.5l0.5 1 0.3 0.2 0.2 0.3 0.2 0.3 0.3 0.2 0.5 1 0.5 1 0.5 1 0.5 1h0.5v0.5l0.2 0.3 0.3 0.2 0.3 0.2 0.2 0.3 0.2 0.3 0.3 0.2 0.3 1 0.2 1h2l0.2-1 0.3-1 0.5-1 0.5-1 0.3-0.2 0.2-0.3 0.2-0.3q0.3-0.2 2-2.4 1.8-2.3 4.3-7 2.5-4.8 3.5-5l1-0.3 0.2-0.3 0.3-0.2 0.5-1 0.5-1 0.3-0.2 0.2-0.3 0.2-0.3 0.3-0.2 0.3-0.2 0.2-0.3 0.2-0.3 0.3-0.2 0.3-0.2 0.2-0.3 0.2-0.3 0.3-0.2h0.5v0.5l0.2 0.3 0.3 0.2 0.3 1 0.2 1v0.5l-0.2 0.3-0.3 0.2-0.5 1-0.5 1-0.3 0.2-0.2 0.3-1.2 0.7q-1.3 0.8-2.3 3.3t1 5 2.5 3.5l0.5 1 0.3 0.5 0.2 0.5h-0.5l-0.3 1-0.2 1h-2l-0.5-0.2-0.5-0.3-0.2-0.3-0.3-0.2-0.5-1q-0.5-1-1.2-2.5l-0.8-1.5h-3l-7 12.5q-7 12.5-8 12.5t-3 5-3 5-7.8 13q-6.7 13-7 14.5-0.2 1.5-1.2 1.5t-1 1.5v1.5h-0.5l-0.3 1-0.2 1h-0.5l-0.3 0.5-0.2 0.5h-0.5l-0.5-2q-0.5-2-2.2-1.2-1.8 0.7-4.3-2-2.5-2.8-3.5-3-1-0.3-10.8-12-9.7-11.8-15.4-15.3-5.8-3.5-8.6-8-2.7-4.5-6.4-8-3.8-3.5-6.3-8.5l-2.5-5h0.5l0.5-5.5q0.5-5.5 4-16t8-22.5 10.5-23.5l6-11.5 0.5-1.5 0.5-1.5 0.3-0.2 0.2-0.3 0.2-0.3 0.3-0.2 0.3-0.2 0.2-0.3 0.2-0.3z"/>
   <path d="m456.2 535l0.3-1h0.5l8.2 13.5q8.3 13.5 9.3 16.5t0.5 15-4 21.5-14.2 31.3q-10.8 21.7-11 22l-0.3 0.2-0.3 0.2-0.2 0.3-0.5 0.3-0.5 0.2v0.5l-0.2 0.3-0.3 0.2-0.3 0.5-0.2 0.5h-0.5v-4q0-1-2.3-0.2-2.2 0.7-2.7-1.6-0.5-2.2-1.5-2.4-1-0.3-4.5-5.8t-8.5-13.8q-5-8.2-6-8.2t-1.5-1.2q-0.5-1.3-0.5-3v-1.8l0.5-0.2q0.5-0.3 4-4.6 3.5-4.2 4.5-4.2t2.8-3q1.7-3 6-10 4.2-7 5.2-7t8-11.2q7-11.3 13-15.6l6-4.2-0.2-1q-0.3-1-4.3-7l-4-6-0.5-1q-0.5-1-1.2-2.5l-0.8-1.5h2l0.2-1zm-39 82.2q0.3-0.2 0.6 0 0.2 0.3-0.3 0.3t-0.3-0.3z"/>
  </g>
  <path d="m984 359.5l0.5-1.5h0.5l-1.8 10q-1.7 10-8.4 21.8-6.8 11.7-11.6 18.4-4.7 6.8 1 14.3 5.8 7.5 9.6 11 3.7 3.5 10.7 11.5t7.3 9.5q0.2 1.5 5.4 6 5.3 4.5 19.6 18.7 14.2 14.3 14.4 14.6l0.3 0.2 0.3 0.2 0.2 0.3 0.2 0.3 0.3 0.2 0.3 0.2 0.2 0.3 0.2 0.3 0.3 0.2 0.3 1 0.2 1h-2l-0.2-1-0.3-1-0.3 0.2-0.2 0.3-0.2 0.3-0.3 0.2-0.3 0.2-0.2 0.3-0.2 0.3-0.3 0.2-0.3 0.2-0.2 0.3 0.2 0.3 0.3 0.2 0.3 1 0.2 1-0.5-0.2-0.5-0.3-1-0.5-1-0.5-0.2-0.3-0.3-0.2-0.3-0.2q-0.2-0.3-11.4-11-11.3-10.8-13.6-11.6-2.2-0.7-8.7 3.8t-26.3 19.2q-19.7 14.8-22.4 16.3-2.8 1.5-3 2.5-0.3 1-9.6 8.2l-9.2 7.3-0.2 0.3-0.3 0.2v2l0.3 0.2 0.2 0.3 3.5 4.3q3.5 4.2 4.5 4.2t6 6.5 8.5 9.3q3.5 2.7 4.5 3.2l1 0.5 0.2 0.3 0.3 0.2 0.3 0.5 0.2 0.5-2 0.2q-2 0.3-5 2.6-3 2.2-9.2 12.2-6.3 10-25.3 37t-18.5 30l0.5 3 0.3 0.2 0.2 0.3 0.2 0.3 0.3 0.2 0.3 0.2 0.2 0.3 0.2 0.3 0.3 0.2 0.3 1 0.2 1h-2l-0.2-1-0.3-1-0.3-0.2-0.2-0.3-0.2-0.3-0.3-0.2-0.3-0.2-0.2-0.3-0.2-0.3-0.3-0.2-0.3-0.2-0.2-0.3-0.2-0.3-0.3-0.2-0.3-0.2-0.2-0.3-0.2-0.3q-0.3-0.2-1.6-1-1.2-0.7-5.2-5.4-4-4.8-5.5-4.8t-4-3.2q-2.5-3.3-15.5-19.3l-13-16-0.2-0.3-0.3-0.2-0.3 0.2-0.2 0.3-1 0.5q-1 0.5-14.5 12.5l-13.5 12-1 0.5-1 0.5-0.2 0.3-0.3 0.2-0.3 1-0.2 1-1 0.2-1 0.3-1 0.3-1 0.2v-2h3l0.2-1.5 0.3-1.5 0.5-1 0.5-1 0.3-0.2q0.2-0.3 0.7-1.6 0.5-1.2 1.7-1.7 1.3-0.5 5-4 3.8-3.5 5.8-7.5t3-4 2.8-3q1.7-3 2.4-8l0.8-5h2v-3h0.5l0.5 1 0.5 1 2.3 3.8q2.2 3.7 2.4 4l0.3 0.2 0.3 0.2 0.2 0.3 1 0.5 1 0.5 1 0.3 1 0.2v-2l3.8-3.5q3.7-3.5 5-4 1.2-0.5 3.2-4.5t4.2-4.5q2.3-0.5 2.6-3 0.2-2.5 2.7-2.7 2.5-0.3 4-1 1.5-0.8 1.5-2.6 0-1.7 2-1.4 2 0.2 2-0.8t1.5-1 1-2.5 2.3-3q2.7-0.5 3.4-2.7 0.8-2.3 2.8-1.8t2.5-1.5 1.7-1.7q1.3 0.2 1.6-0.8 0.2-1 2.2-1.8 2-0.7 3.5-1 1.5-0.2 2-2.2t5-4.2q4.5-2.3 6-3.3t1.7-1.3l0.3-0.2 0.3-1 0.2-1 1-0.2 1-0.3 0.2-0.3 0.3-0.2 0.3-0.2 0.2-0.3 0.2-0.3 0.3-0.2v-1l-0.3-1-0.2-1-1-0.2-1-0.3-0.2-0.3-0.3-0.2-0.3-0.2-0.2-0.3-0.2-0.3q-0.3-0.2-0.6 0-0.2 0.3-3.7 0.6-3.5 0.2-3.7-1.8-0.3-2-2.6-2.8-2.2-0.7-2.7-2.4-0.5-1.8 0.5-2 1-0.3 0.5-1.6-0.5-1.2-3-1.7t-2.3-3.5q0.3-3-1-3.8-1.2-0.7-1.2-2.4 0-1.8-1.5-1.8h-1.5v-5h2v1q0 1 2.8 1 2.7 0 7.7-6.5t14.3-20.3q9.2-13.7 10.2-14 1-0.2 4.5-8 3.5-7.7 6.3-11.4 2.7-3.8 1.7-7.3t-1.3-3.3l-0.2 0.3-0.2 0.3-0.3 0.2-0.5-1-0.5-1-0.5-1-0.5-1-0.3-0.2-0.2-0.3 0.2-0.3 0.3-0.2 0.3-0.2 0.2-0.3 0.2-0.3 0.3-0.2 0.3-0.2 0.2-0.3 0.5-2.5q0.5-2.5 2-3t2.7-1.8q1.3-1.2 1-2.7-0.2-1.5 1.8-2t2.5-3 3.5-2.5 3-3.5 3-3.5 3-4.5 1-4.5 1.5-1.2q0.5-1.3 2.3-2.6 1.7-1.2 2.2-2.7t1-1 0.8-0.5q0.2-1 1.4-0.5 1.3 0.5 2.8-4.5t1.2-6q-0.2-1 0.8-1t1-1.8q0-1.7 1-2 1-0.2 1.8-4.2 0.7-4 1-4h0.7l0.3 0.2 0.2 0.3 0.2 0.3 0.3 0.2 0.5-1.5zm-13.8 27.3q-0.2-0.3 0-0.6 0.3-0.2 0.3 0.3t-0.3 0.3zm-3 5q-0.2-0.3 0-0.6 0.3-0.2 0.3 0.3t-0.3 0.3zm-23.2 36.4l1-0.2-0.2 1-0.3 1-0.3 0.2q-0.2 0.3-0.7 0.3t-0.5-1v-1l1-0.3zm-42.8 87.6q-0.2-0.3 0-0.6 0.3-0.2 0.3 0.3t-0.3 0.3zm3 7q-0.2-0.3 0-0.6 0.3-0.2 0.3 0.3t-0.3 0.3zm6 3.7q-0.2-1.5 1.3-0.7 1.5 0.7 0.3 1.4-1.3 0.8-1.6-0.7zm-2 1.3q-0.2-0.3 0-0.6 0.3-0.2 0.3 0.3t-0.3 0.3zm-26 35q-0.2-0.3 0-0.6 0.3-0.2 0.3 0.3t-0.3 0.3z" fill="#909090" stroke="#909090"/>
  <path d="m247.5 563.8l0.5-0.8 0.8 1q0.7 1 21.2 30.5t27.5 39.5 7.5 11.5l0.5 1.5 0.3 1 0.2 1-9.5 8.8q-9.5 8.7-10.5 9.2l-1 0.5-0.2 0.3-0.3 0.2-0.3 0.2-0.2 0.3 0.2 0.3 0.3 0.2 0.3 0.2 0.2 0.3 0.2 0.3 0.3 0.2 0.3 0.2 0.2 0.3 14.8 12.7q14.7 12.8 15 13.8 0.2 1 1.4 1.5 1.3 0.5 1.6 1.5 0.2 1 13.2 11.5t13 11.5 1.2 1.5q1.3 0.5 1.6 1.5 0.2 1 1.4 1.5 1.3 0.5 1.6 1.5 0.2 1 1.2 1t1 1 4 4.2q4 3.3 9.8 0 5.7-3.2 10.7-7.7t5.3-5.5q0.2-1 3.2-2.5t6.5-6 5.7-6q2.3-1.5 2.6-2.5 0.2-1 4-4.5 3.7-3.5 4-3.7l0.2-0.3 0.2-0.3 0.3-0.2 0.3-0.2 0.2-0.3 0.2-0.3 0.3-0.2 0.3-0.2 0.2-0.3 0.2-0.3 0.3-0.2 0.3-0.2 0.2-0.3 0.2-0.3 0.3-0.2 0.5-1 0.5-1h0.5l0.2 1 0.3 1 0.3 0.2 0.2 0.3 0.5 0.3 0.5 0.2v0.5l-0.2 0.3-0.3 0.2-0.3 0.2-0.2 0.3-0.2 0.3-0.3 0.2-0.3 0.2-0.2 0.3-0.2 0.3-0.3 0.2-0.3 0.2-0.2 0.3-0.2 0.3-0.3 0.2-0.3 0.2-0.2 0.3-0.2 0.3-0.3 0.2-3.3 4.5q-3.2 4.5-11 11.5-7.7 7-8 8-0.2 1-3.4 3-3.3 2-8 6.8-4.8 4.7-9.3 7.4-4.5 2.8-7.5 6-3 3.3-19 14.3t-17.5 11.3q-1.5 0.2-3 2-1.5 1.7-3.5 2.7t-2.2 1.3l-0.3 0.2-0.3 0.2-0.2 0.3-0.2 0.3-0.3 0.2-0.3 0.2-0.2 0.3-1 0.3-1 0.2-0.2-0.5-0.3-0.5-0.3-0.2-0.2-0.3-0.2-0.3-0.3-0.2v-2l0.3-0.2q0.2-0.3 1.2-0.6 1-0.2 0.8-2.2-0.3-2-1.6-2.5-1.2-0.5-1.4-2-0.3-1.5-24.3-37t-25.3-36.3q-1.2-0.7-1-1.4 0.3-0.8-1.4-0.8-1.8 0-1.8-1t-1.5-1h-1.5v-0.5l1-0.5 1-0.5 0.2-0.3 0.3-0.2 0.3-0.2 0.2-0.3 1-0.5q1-0.5 12-8.2l11-7.8 0.2-1 0.3-1v-2l-0.3-0.2-0.2-0.3-1-0.5q-1-0.5-1.5-1.8-0.5-1.2-6.3-5.7-5.7-4.5-9.4-7-3.8-2.5-3.8-3.5t-1-1.2q-1-0.3-1.5-1.6-0.5-1.2-6.5-4.7t-6.2-4.5q-0.3-1-8-6.8-7.8-5.7-19.8-14.7l-12-9-0.2-0.3-0.3-0.2-0.3-0.2-0.2-0.3-0.2-0.3-0.3-0.2h-0.5l0.2-0.5 0.3-0.5 0.3-1 0.2-1 0.5-0.2 0.5-0.3 0.2-0.3 0.3-0.2 0.3-0.2q0.2-0.3 3.7-4 3.5-3.8 4.5-4 1-0.3 16.5-13.6l15.5-13.2 1-0.2q1-0.3 1-0.6v-0.2l0.5-0.2q0.5-0.3 1-1zm164.7 131.4q0.3-0.2 0.6 0 0.2 0.3-0.3 0.3t-0.3-0.3zm-99 82q0.3-0.2 0.6 0 0.2 0.3-0.3 0.3t-0.3-0.3z" fill="#c2c2c2" stroke="#c2c2c2"/>
  <path d="m273 423.2v-0.2h1v0.2q0 0.3 0.5 0.6l0.5 0.2 21.2 34q21.3 34 21.6 35 0.2 1 1.2 1t6 8.2q5 8.3 10.8 16.6 5.7 8.2 6.2 9.2l0.5 1 0.3 0.2 0.2 0.3 0.2 0.3 0.3 0.2 0.3 0.2 0.2 0.3 0.2 0.3 0.3 0.2 0.5 1 0.5 1 0.3 1 0.2 1 2.5 5q2.5 5 6.3 8.5 3.7 3.5 6.4 8 2.8 4.5 8.6 8 5.7 3.5 15.4 15.3 9.8 11.7 10.8 12 1 0.2 3.5 3 2.5 2.7 4.3 2 1.7-0.8 2.4 0.4 0.8 1.3 1 1l0.3-0.2 0.3-0.2 0.2-0.3 0.2-0.3 0.3-0.2h0.5l-1.2 3q-1.3 3-1.6 10l-0.2 7 1 0.2 1 0.3h3l1-0.5 1-0.5 0.2-0.3 0.3-0.2 0.3-0.2 0.2-0.3 0.2-0.3 0.3-0.2h0.5l1.2 1.5q1.3 1.5 0.6 3-0.8 1.5 0.2 1.5t6 8.2q5 8.3 8.5 13.8t4.5 5.8q1 0.2 1.5 2.4 0.5 2.3 2.7 1.6 2.3-0.8 2.8 0.2l0.5 1 0.3 0.5 0.2 0.5v3h-1q-1 0-2 3t-2 3-7 8.8q-6 8.7-9.2 13-3.3 4.2-3.8 5.2l-0.5 1-0.3 0.2-0.2 0.3-0.2 0.3-0.3 0.2-0.3 0.2-0.2 0.3-0.5 0.3-0.5 0.2h-0.5l-0.3 0.2-0.2 0.3-0.2 0.3-0.3 0.2-0.3 0.2-0.2 0.3-1 0.3-1 0.2 0.2-1 0.3-1 0.3-0.2 0.2-0.3 0.2-0.3 0.3-0.2 0.3-1 0.2-1 0.2-0.5 0.3-0.5 0.3-0.2 0.2-0.3 0.2-0.3 0.3-0.2 0.3-0.2 0.2-0.3 0.2-0.3 0.3-0.2 0.3-0.2q0.2-0.3 1.2-2.6 1-2.2 2-2.4 1-0.3 3.2-3.6 2.3-3.2 4.8-7.7t-12.2-17.3q-14.8-12.7-17.8-16-3-3.2-4.5-4-1.5-0.7-5-4.4-3.5-3.8-4.5-4-1-0.3-9-7.6l-8-7.2-0.2-1-0.3-1-0.3-0.2-0.2-0.3-0.2-0.3-0.3-0.2-0.3-0.2q-0.2-0.3-1.4-1.6-1.3-1.2-0.6-2 0.8-0.7-1.4-3-2.3-2.2-3.8-6.7t0.8-9.5q2.2-5 3.2-5t0.5-2 0.7-2.5q1.3-0.5 0-4-1.2-3.5-2.2-3.5t-1-1.5-1-1.7q-1-0.3-4.5-4.3t-6-7.7q-2.5-3.8-3.5-3.8t-1-1.5-1-1.7q-1-0.3-5.2-5.6-4.3-5.2-7-7.7-2.8-2.5-4.3-5.5t-2.5-3.2q-1-0.3-1.5-2-0.5-1.8-1.5-1.8t-6.5-6.5l-5.5-6.5-0.2-1-0.3-1-0.5-3.5q-0.5-3.5-1.8-4.3-1.2-0.7-11-16.4-9.7-15.8-14-20.6-4.2-4.7-3.7-6 0.5-1.2-1-1.4-1.5-0.3-1.7-1-0.3-0.8-0.8-4.3l-0.5-3.5-0.3 0.2-0.2 0.3-1 0.3-1 0.2-0.2-2-0.3-2h-0.5l0.2-2.5q0.3-2.5 1.6-8.7l1.2-6.3v-0.3z" fill="#c5c5c5" stroke="#c5c5c5"/>
  <path d="m815.8 451.8l0.2-0.3 0.2-0.3 0.3-0.2 0.3 0.2 0.2 0.3 0.2 0.3 0.3 0.2 0.5 1 0.5 1 0.3 0.2 0.2 0.3 0.2 0.3 0.3 0.2 9.5 20.5q9.5 20.5 13.5 34.5t4.3 15.5l0.2 1.5-0.5 0.2-0.5 0.3-0.2 0.3-0.3 0.2-0.5 2-0.5 2-0.7 2.2q-0.8 2.3-5 9-4.3 6.8-5.3 11.3t-2.7 7.5q-1.8 3-2.8 3t-4.2 5q-3.3 5-3 6 0.2 1-2.6 2.5-2.7 1.5-3.2 2.5t-1.5 3.5-0.7 3.5q0.2 1 1 1.5 0.7 0.5-0.6 2.3-1.2 1.7-0.4 2.4 0.7 0.8-0.8 3.8t-1.8 4l-0.2 1-0.5 0.2q-0.5 0.3-0.5 0.6v0.2l-0.5 0.2q-0.5 0.3-0.5 0.6v0.2l-0.5 0.2q-0.5 0.3-0.5 0.6v0.2l-0.5 0.2q-0.5 0.3-0.7 0.6l-0.3 0.2-0.5 1-0.5 1-0.3 0.2q-0.2 0.3-4 3l-3.7 2.8-0.3 0.2-0.2 0.3-0.2 0.3-0.3 0.2-0.3 0.2-0.2 0.3-0.2 0.3-0.3 0.2-0.3 1-0.2 1-1-0.2-1-0.3-0.2-0.3-0.3-0.2-0.3-0.2-0.2-0.3-0.2-0.3-0.3-0.2-0.3-0.2-0.2-0.3-0.2-0.3-0.3-0.2-0.3-0.2-0.2-0.3v-0.5l-0.2-4q-0.3-4-2.8-11.5t-15.2-30.5q-12.8-23-13.8-23.2-1-0.3-5.2-7.6-4.3-7.2-5.6-7.2h-1.2l-0.5 0.2q-0.5 0.3-0.5 0.6v0.2l-0.5 0.2q-0.5 0.3-1 0.8l-0.5 0.5-0.2 0.3-0.3 0.2-0.3-2-0.2-2v-0.2q0-0.3 0.2-0.6 0.3-0.2 0.8-3.2t-2-6l-2.5-3-0.3-0.2-0.2-0.3-0.2-0.3-0.3-0.2-0.3-0.2-0.2-0.3-0.2-0.3-0.3-0.2-0.3-0.2-0.2-0.3v-0.5h0.5l0.5-1.5 0.5-1.5h0.5v0.5l0.5 0.3 0.5 0.2v0.5l0.2 0.3 0.3 0.2 0.3 0.2 0.2 0.3 0.2 0.3 0.3 0.2 0.5 1 0.5 1 0.3 0.2 0.2 0.3 1 0.3q1 0.2 3.8 4.7 2.7 4.5 4.7 7t2.5 4l0.5 1.5 0.3 0.2 0.2 0.3 0.2 0.3 0.3 0.2 0.3 0.2 0.2 0.3 0.2 0.3 0.3 0.2 0.5 1 0.5 1 0.3-0.2 0.2-0.3 0.2-0.3 0.3-0.2 0.3-0.2 0.2-0.3 0.2-0.3 0.3-0.2 0.3-0.2 0.2-0.3 0.2-0.3 0.3-0.2 0.3-0.2 0.2-0.3 0.2-0.3 0.3-0.2 0.3-1 0.2-1h0.5l0.5-1 0.5-1 0.3-0.2 0.2-0.3 0.2-0.3 0.3-0.2 0.3-0.2 0.2-0.3 0.2-0.3 0.3-0.2 3.7-5.8q3.8-5.7 5-6.4 1.3-0.8 9.8-13.8t8.8-14q0.2-1 1.2-1t10.2-15q9.3-15 9.8-16l0.5-1 0.3-0.2 0.2-0.3 0.2-0.3 0.3-0.2 0.5-1 0.5-1 0.3-0.2zm-5.6 145q-0.2-0.3 0-0.6 0.3-0.2 0.3 0.3t-0.3 0.3z" fill="#fcfcfc" stroke="#fcfcfc"/>
  <g fill="#f5f5f5" stroke="#f5f5f5">
   <path d="m936.2 689l0.8-1 27 15.8q27 15.7 30.8 16.4 3.7 0.8 5 0.3 1.2-0.5 4.2-3.7 3-3.3 9.5-8 6.5-4.8 7-6 0.5-1.3 1.5-1.6 1-0.2 1-1.2t3-2.8q3-1.7 4-2.2l1-0.5 0.2-0.3 0.3-0.2 0.3-1 0.2-1 1-0.2 1-0.3 1-0.3 1-0.2-0.2 2-0.3 2-0.3 0.2-0.2 0.3 1 0.3 1 0.2v2l-1 0.2-1 0.3-1 0.5q-1 0.5-11.5 8.2-10.5 7.8-10.7 8.8-0.3 1-2 1.5-1.8 0.5-3.3 2.3-1.5 1.7-41 40.7t-47.5 36.5-22.5-10.2l-14.5-7.8-0.2-0.5q-0.3-0.5-0.6-0.5h-0.2l-0.2-0.5q-0.3-0.5-0.6-0.7l-0.2-0.3-0.2-0.3q-0.3-0.2 0.2-2.7t1.8-3.5q1.2-1 1.4-2.5 0.3-1.5 24.3-37t25.3-36q1.2-0.5 1.2-2t1.2-2q1.3-0.5 2-1.5zm98 4.8q-0.2-0.3 0-0.6 0.3-0.2 0.3 0.3t-0.3 0.3z"/>
   <path d="m158.2 691l-0.2-1 2.5 1.5q2.5 1.5 2.5 2.5t9 7.8q9 6.7 17 13.2t16 3 18.5-10 15.7-9.2q5.3-2.8 9.3-5.3t4.3-2.5h0.2l3.2 1q3.3 1 3 1.8-0.2 0.7 1 1.4 1.3 0.8 25.3 36.3t24.3 37q0.2 1.5 1.4 2 1.3 0.5 1.8 4t0.2 4l-0.2 0.5h-0.2q-0.3 0-0.6 0.5l-0.2 0.5v0.2q0 0.3-16 8.3t-22 9.5-9.5-2.8q-3.5-4.2-4.5-4.4-1-0.3-1.5-1.6-0.5-1.2-1.5-1.4-1-0.3-1.5-1.6-0.5-1.2-1.5-1.4-1-0.3-6.5-6.6-5.5-6.2-6.5-6.4-1-0.3-1.5-1.6-0.5-1.2-1.5-1.4-1-0.3-1.5-1.6-0.5-1.2-1.5-1.4-1-0.3-5-5-4-4.8-5-5-1-0.3-1.5-1.6-0.5-1.2-1.5-1.4-1-0.3-1.5-1.6-0.5-1.2-1.5-1.4-1-0.3-5-5-4-4.8-5-5-1-0.3-1.5-1.6-0.5-1.2-1.5-1.4-1-0.3-1.5-1.6-0.5-1.2-1.5-1.4-1-0.3-6.5-6.6-5.5-6.2-17-14.4-11.5-8.3-14-11-2.5-2.8-4-3.6l-1.5-0.7-0.2-0.3-0.3-0.2-0.3-0.2-0.2-0.3-1-0.5q-1-0.5-1-0.8v-0.2l-0.5-0.2-0.5-0.3v-0.7q0-0.3 1.5-0.8l1.5-0.5-0.2-0.3-0.3-0.2-0.3-1zm152 86.2q0.3-0.2 0.6 0 0.2 0.3-0.3 0.3t-0.3-0.3z"/>
  </g>
  <path d="m212.2 371l-2.2-9h0.5l0.5 1 0.5 1 0.3-0.2 0.2-0.3 0.2-0.3 0.3-0.2h0.5l2.8 8q2.7 8 4 11.5 1.2 3.5 2.2 3.5t3.2 4.5q2.3 4.5 4 8 1.8 3.5 2.8 3.5t2.5 2.8q1.5 2.7 8 11.2t7.5 8.8q1 0.2 7.8 9.2 6.7 9 7.2 10l0.5 1 0.3 0.2 0.2 0.3 0.2 0.3 0.3 0.2 0.3 0.2 0.2 0.3 0.2 0.3 0.3 0.2 0.5 1 0.5 1 0.3-0.2 0.2-0.3 0.2-0.3 0.3-0.2 0.3-3.5 0.2-3.5h0.5l0.3 2 0.2 2 1-0.2 1-0.3 0.2-0.3 0.3-0.2 0.5 3.5q0.5 3.5 0.8 4.3 0.2 0.7 1.7 1 1.5 0.2 1 1.4-0.5 1.3 3.7 6 4.3 4.8 14 20.6 9.8 15.7 11 16.4 1.3 0.8 1.8 4.3l0.5 3.5 0.3 1 0.2 1v0.5l-0.2 0.3-0.3 0.2-0.3 0.2-0.2 0.3-1.8 0.3q-1.7 0.2-3-1-1.2-1.3-1.7 0.7t-2.3 3.3q-1.7 1.2-2.2 3.7t-1.2 5.3q-0.8 2.7-3.3 3.4-2.5 0.8-3 3.8t-1.7 3.5q-1.3 0.5-1 1.5 0.2 1 1.7 1.2 1.5 0.3 1.7 0.6l0.3 0.2v2l-0.3-0.2-0.2-0.3h-2l-1 0.5-1 0.5-2.5 0.3q-2.5 0.2-2.5-0.8t-3-2-3 0-1 1h-1v-1.5q0-1.5-6.2-6-6.3-4.5-13-9.7-6.8-5.3-9.3-8-2.5-2.8-9-6.8t-6.5-5-3.8-3q-3.7-2-9-5.5-5.2-3.5-5.2-4.5t-6-4.8q-6-3.7-9-4.7t-5.5 1.5-6 6.2q-3.5 3.8-4.5 3.8t-1.2 1q-0.3 1-4.8 5l-4.5 4-0.3 0.2-0.2 0.3-0.2 0.3-0.3 0.2-0.3 0.2-0.2 0.3-0.5 0.3-0.5 0.2-0.2-1-0.3-1-0.5-1-0.5-1-0.3-0.2-0.2-0.3-0.2-0.3-0.3-0.2-0.3 1-0.2 1h-3l0.2-1 0.3-1 0.3-0.2 0.2-0.3 1-0.5 1-0.5 0.2-0.3 0.3-0.2 0.3-0.2q0.2-0.3 9.4-9 9.3-8.8 13-12.3 3.8-3.5 4-4.5 0.3-1 1.6-1.5 1.2-0.5 1.4-1.5 0.3-1 1.6-1.5 1.2-0.5 9-10 7.7-9.5 11.4-13 3.8-3.5 8-9.5 4.3-6 8-9.5 3.8-3.5-0.2-10.3-4-6.7-10.8-18.4-6.7-11.8-9-20.8zm70 164.2q0.3-0.2 0.6 0 0.2 0.3-0.3 0.3t-0.3-0.3z" fill="#909090" stroke="#909090"/>
  <path d="m305 507.5l3 1 0.2-0.3 0.3-0.2 0.3-0.2 0.2-0.3v-0.5l5.5 6.5q5.5 6.5 6.5 6.5t1.5 1.8q0.5 1.7 1.5 2 1 0.2 2.5 3.2t4.3 5.5q2.7 2.5 7 7.7 4.2 5.3 5.2 5.6 1 0.2 1 1.7t1 1.5 3.5 3.8q2.5 3.7 6 7.7t4.5 4.3q1 0.2 1 1.7t1 1.5 2.2 3.5q1.3 3.5 0.6 6-0.8 2.5-1.8 2.5t-3.2 5q-2.3 5-0.8 9.5t3.2 6.3q1.8 1.7 2.8 2.2l1 0.5 0.2 0.3 0.3 0.2v4l0.3 0.2 0.2 0.3 0.2 0.3 0.3 0.2 0.3 1 0.2 1-0.5-0.2-0.5-0.3-0.2-0.3-0.3-0.2-0.3-0.2-0.2-0.3-0.2-0.3-0.3-0.2-0.3-0.2-0.2-0.3-0.2-0.3-0.3-0.2-0.3-0.2-0.2-0.3-0.2-0.3-0.3-0.2-0.3-0.2-0.2-0.3-1-0.5q-1-0.5-4.2-3.8l-3.3-3.2-0.3-0.2-0.2-0.3-0.2-0.3-0.3-0.2-0.5 1-0.5 1-2.3 3.2q-2.2 3.3-3.2 3.6-1 0.2-7 8-6 7.7-11 14-5 6.2-6 6.2t-4.5 3.8q-3.5 3.7-5.3 5.4-1.7 1.8-2 2l-0.2 0.3-0.2 0.3-0.3 0.2-0.3 0.2-0.2 0.3-1 0.5-1 0.5-0.5 0.3-0.5 0.2-0.2-1-0.3-1-0.5-1.5q-0.5-1.5-7.5-11.5t-27.5-39.5-21.8-30q-1.2-0.5-1.2 0.5v1h-3l0.2-0.5 0.3-0.5 0.3-0.2 0.2-0.3 0.2-0.3 0.3-0.2 0.3-0.2 0.2-0.3 0.2-0.3 0.3-0.2 0.3-0.2 0.2-0.3 1-0.3q1-0.2 1-1.2t1-1.2q1-0.3 12-12l11-11.8 0.5-0.2q0.5-0.3 0.5-0.6v-0.2h4.2q4.3 0 4.6 1.5 0.2 1.5 1.7 1.3l1.5-0.3 1-0.3 1-0.2-0.2-1.5q-0.3-1.5-0.8-2.5t0.8-1.5q1.2-0.5 1.7-3.5t3-3.8q2.5-0.7 3.3-3.4 0.7-2.8 1.2-5.3t2.2-3.7q1.8-1.3 2.3-3.3t3.5-1zm57.2 96.7q0.3-0.2 0.6 0 0.2 0.3-0.3 0.3t-0.3-0.3z" fill="#888" stroke="#888"/>
  <path d="m912.5 669.8l0.5 0.2v0.2q0 0.3 0.5 0.6l0.5 0.2h0.5l0.3 0.2 0.2 0.3 2 0.7q2 0.8 4 3.6 2 2.7 9 7.2t7 4.8v0.2l-0.8 1q-0.7 1-2 1.5-1.2 0.5-1.2 2t-1.2 2q-1.3 0.5-25.3 36t-24.3 37q-0.2 1.5-1.4 2.5-1.3 1-1 3.2 0.2 2.3 0 2.6l-0.3 0.2-0.3 0.2-0.2 0.3 1 0.3 1 0.2v2l-1-0.2-1-0.3-0.2-0.3-0.3-0.2-0.3-0.2-0.2-0.3-0.2-0.3-0.3-0.2-0.3-0.2-0.2-0.3-1-0.5q-1-0.5-2-0.8-1-0.2-1-1.2t-6-3.5-6-3.5-1-1.2q-1-0.3-23.5-17.6-22.5-17.2-22.7-18.2-0.3-1-5-4.8-4.8-3.7-17-17l-12.3-13.2-0.5-1-0.5-1-0.3-0.2-0.2-0.3-1-0.3-1-0.2v-2h0.5l0.3 0.2 0.2 0.3h2l-0.2-0.3-0.3-0.2-0.3-1-0.2-1h0.5l0.3 0.2 0.2 0.3 0.2 0.3 0.3 0.2 0.5 1 0.5 1 0.3 0.2 0.2 0.3 0.2 0.3 0.3 0.2 0.3 0.2 0.2 0.3 1.5 2.3q1.5 2.2 4.3 4.7 2.7 2.5 3 3.5 0.2 1 1.4 1.5 1.3 0.5 1.6 1.5 0.2 1 3.4 3.5 3.3 2.5 3.6 3.5 0.2 1 7.4 7 7.3 6 15 12.2 7.8 6.3 10 5.6 2.3-0.8 11.6-9.3 9.2-8.5 9.7-9.7 0.5-1.3 1.5-1.6 1-0.2 1.5-1.4 0.5-1.3 2-1.6 1.5-0.2 4.5-3.4 3-3.3 12.8-12 9.7-8.8 10-9.8 0.2-1 7.2-6.2 7-5.3 9.5-7.8t4-3l1.5-0.5v-0.5h0.2q0.3 0 0.6-0.5l0.2-0.5 1-0.2q1-0.3 1.5 0z" fill="#c9c9c9" stroke="#c9c9c9"/>
  <path d="m948 564.8l1 0.2v0.2q0 0.3 1 0.6l1 0.2 1.5 1q1.5 1 1.5 2t1 1 4 3.2q3 3.3 13 11.3t15 12.5 8 3.2q3-1.2 3-2.2t6.5-4.5 8.5-5.7q2-2.3 2.2-2.6l0.3-0.2 0.3-0.2 0.2-0.3 0.2-0.3 0.3-0.2 0.3-0.2 0.2-0.3 1-0.5 1-0.5 0.2-0.3 0.3-0.2 0.3-0.2 0.2-0.3 0.2-0.3 0.3-0.2 0.3-0.2 0.2-0.3 1-0.3 1-0.2-0.2 1-0.3 1-0.3 0.2-0.2 0.3-0.2 0.3-0.3 0.2-0.5 1-0.5 1-0.3 1-0.2 1-1 0.2-1 0.3-2.8 2.7q-2.7 2.8-3.4 4.6-0.8 1.7-3 4.4-2.3 2.8-3 5.6-0.8 2.7 0 3.4 0.7 0.8 1.2 1.8l0.5 1v1l-0.3 0.2-0.2 0.3-0.2 0.3-0.3 0.2-0.3 0.2-0.2 0.3v0.5l-0.5-0.2-0.5-0.3-1-0.5-1-0.5-0.2-0.3-0.3-0.2-0.3-0.2q-0.2-0.3-2.2-2.6-2-2.2-4.5-3-2.5-0.7-12.5 6-10 6.8-10.2 7.8-0.3 1-4.6 3.5-4.2 2.5-4.2 3.5t-1.2 1.5q-1.3 0.5-8 5-6.8 4.5-6.8 5.5t-1 1-1 1-3.2 3q-3.3 2-7 4.5-3.8 2.5-4 3.5-0.3 1-1.6 1.5-1.2 0.5-1.4 1.5-0.3 1-2 2-1.8 1-2 2-0.3 1-5 4.8l-4.8 3.7-0.2 0.3-0.3 0.2-0.3 1.5-0.2 1.5h-2l-0.2-1q-0.3-1-0.6 0l-0.2 1h-2l0.2-1q0.3-1 0.3-1.5v-0.5l-0.3-0.2-0.2-0.3-1-0.5q-1-0.5-3.5-3.2-2.5-2.8-3.5-3-1-0.3-1.5-1.6-0.5-1.2-3-2.7l-2.5-1.5-0.2-0.5q-0.3-0.5-0.6-0.5h-0.2l-0.2-1-0.3-1-0.3-0.2-0.2-0.3-0.2-0.3-0.3-0.2-0.5-3q-0.5-3 18.5-30t25.3-37q6.2-10 8-11.5 1.7-1.5 3-3.3 1.2-1.7 2.2-1.4z" fill="#bdbdbd" stroke="#bdbdbd"/>
  <path d="m221 320l0.5-1 0.3 0.2 0.2 0.3 0.2 0.3 0.3 0.2 0.5 2 0.5 2 0.5 1 0.5 1 2.7 8q2.8 8 3.8 8t5.2 10q4.3 10 19.3 37.5t15.5 29l0.5 1.5 0.5 1 0.5 1 0.3 0.5 0.2 0.5v0.5l-1.2 6.3q-1.3 6.2-1.6 8.7l-0.2 2.5 0.2 3.5 0.3 3.5 0.3 1 0.2 1-1-0.2-1-0.3-0.2-0.3-0.3-0.2-0.5-1-0.5-1-0.3-0.2-0.2-0.3-0.2-0.3-0.3-0.2-0.3-0.2-0.2-0.3-0.2-0.3-0.3-0.2-0.5-1q-0.5-1-7.2-10-6.8-9-7.8-9.2-1-0.3-7.5-8.8t-8-11.2q-1.5-2.8-2.5-2.8t-2.8-3.5q-1.7-3.5-4-8-2.2-4.5-3.2-4.5t-2.2-3.5q-1.3-3.5-4-11.5l-2.8-8 0.2-9.5q0.3-9.5 2.8-18.5l2.5-9 0.5-1.5 0.5-1.5 0.5-1 0.5-1 0.5-1z" fill="#020202" stroke="#020202"/>
  <g fill="#464646" stroke="#464646">
   <path d="m857 151l0.5-1 0.3 0.2 0.2 0.3 0.2 0.3 0.3 0.2 0.3 0.2 0.2 0.3 0.2 0.3 0.3 0.2 0.3 0.2 0.2 0.3 0.2 0.3 0.3 0.2 0.3 0.2 0.2 0.3 0.2 0.3 0.3 0.2 11.5 11q11.5 11 11.8 12 0.2 1 1.2 1t10 11.2q9 11.3 9.2 11.6l0.3 0.2 0.3 0.5 0.2 0.5v0.2q0 0.3 0.5 0.6l0.5 0.2v0.2q0 0.3 0.5 0.6l0.5 0.2 0.2 0.5q0.3 0.5 0.8 1.5l0.5 1 3.3 5q3.2 5 4.2 5t2.2 2.5q1.3 2.5-0.2 8.5t-6.5 19.5-17.5 45.5-13 33l-0.5 1-0.3 0.2-0.2 0.3-0.2 0.3-0.3 0.2-0.5 2-0.5 2-0.3-0.2-0.2-0.3-0.2-0.3-0.3-0.2-0.3-0.2-0.2-0.3-0.2-0.3-0.3-0.2-0.3-0.2-0.2-0.3-0.2-0.3-0.3-0.2-0.3-0.2-0.2-0.3-0.2-0.3-0.3-0.2-0.5-1-0.5-1-0.5-1q-0.5-1-0.8-2-0.2-1-1.2-1t-1.2-1.5q-0.3-1.5-1.6-2l-1.2-0.5-0.2-1.5-0.3-1.5-0.5-1q-0.5-1-0.8-1h-0.2l-0.2-0.5q-0.3-0.5-0.6-0.5h-0.2l-0.2-1-0.3-1h-0.5l-0.2-0.5q-0.3-0.5-1.6-3-1.2-2.5-2.2-2.7-1-0.3-13.2-16-12.3-15.8-20.6-24.3l-8.2-8.5-0.2-0.5-0.3-0.5-0.3-0.2-0.2-0.3 0.2-0.3 0.3-0.2 0.3-0.2 0.2-0.3 0.2-0.3 0.3-0.2 7-17.5q7-17.5 16.5-42t11-29.5 2-7l0.5-2 0.5-1 0.5-1 0.5-1z"/>
   <path d="m336.8 150.8l0.2-0.3 0.2-0.3 0.3-0.2 0.5 1 0.5 1 0.5 1 0.5 1 5 14.5q5 14.5 5.3 17.5 0.2 3 1.2 3t2.5 6 2.5 6 4.8 11q3.7 11 9.2 24t5 16.5-1 4-1 1.5l-0.5 1-0.3 0.2-0.2 0.3-0.2 0.3-0.3 0.2-0.3 0.2-0.2 0.3-0.5 0.5q-0.5 0.5-0.5 0.8v0.2l-0.5 0.2q-0.5 0.3-0.5 0.6v0.2l-3.2 3.5q-3.3 3.5-13.3 15.5t-10.3 13q-0.2 1-1.4 1.5-1.3 0.5-10.8 15t-10 15.5l-0.5 1-0.3 0.2-0.2 0.3-0.2 0.3-0.3 0.2-0.3 1-0.2 1h-3l-0.2-1.5-0.3-1.5-0.3-0.2-0.2-0.3-0.2-0.3-0.3-0.2-0.5-2q-0.5-2-7.2-18.2-6.8-16.3-13.3-32.8t-11.3-29.8q-4.7-13.2-5.2-18.2t3.8-11l4.2-6v-0.5l1-0.3 1-0.2 3.5-5.8q3.5-5.7 7.3-10.4 3.7-4.8 4-5.8 0.2-1 1.2-1t9-9.5 14.2-14.5q6.3-5 6.6-6 0.2-1 1.2-1.2l1-0.3 0.2-0.3 0.3-0.2 0.3-0.2 0.2-0.3 0.2-0.3 0.3-0.2 0.3-0.2 0.2-0.3 0.2-0.3 0.3-0.2 0.3-0.2z"/>
  </g>
  <path d="m738.8 533l2.2-3 0.2 2 0.3 2 0.3-0.2 0.2-0.3 0.5-1.3q0.5-1.2 1.5-1.2h1l-7.2 12q-7.3 12-4.3 14t3.3 3q0.2 1 3.2 2.5t9.8 12.5q6.7 11 7 12.5 0.2 1.5 1.2 1.5t5.5 6.8q4.5 6.7 5 8.4 0.5 1.8 1.7 2.3 1.3 0.5 1.6 1.5 0.2 1 1.2 1t1 1 2.5 2.8q2.5 1.7 2.7 2l0.3 0.2 0.3 0.2 0.2 0.3 1 0.5 1 0.5 1 0.5 1 0.5h3l0.2-0.3 0.3-0.2 0.5-1 0.5-1h0.5v0.5l0.2 0.3 0.3 0.2 0.3 0.2 0.2 0.3 2 0.5q2 0.5 2.2 0.2l0.3-0.2 0.3-0.2 0.2-0.3 0.2-0.3 0.3-0.2 0.3-0.2 0.2-0.3 0.2-0.3 0.3-0.2 3.7-2.8q3.8-2.7 4-3l0.3-0.2 0.5-1 0.5-1 0.5-1 0.5-1 0.3-0.2 0.2-0.3 0.2-0.3 0.3-0.2 0.3-0.2 0.2-0.3 1-0.3 1-0.2-0.2 1-0.3 1-0.3 0.2-0.2 0.3-0.2 0.3-0.3 0.2-0.3 0.2-0.2 0.3-0.2 0.3-0.3 0.2-0.3 0.2-0.2 0.3-0.2 0.3-0.3 0.2-2.3 5.5q-2.2 5.5-1.4 6 0.7 0.5-1.6 5.7-2.2 5.3-2.4 5.6l-0.3 0.2-0.3 0.2-0.2 0.3-0.2 0.3-0.3 0.2-0.3 0.2-0.2 0.3-0.2 0.3-0.3 0.2-0.3 0.2-0.2 0.3 0.2 0.3 0.3 0.2v2l-0.3 1.5-0.2 1.5-16.2 14.5q-16.3 14.5-11 21.7 5.2 7.3 5.4 7.6l0.3 0.2 0.3 0.2 0.2 0.3 0.2 0.3 0.3 0.2 0.3 0.2 0.2 0.3 0.2 0.3 0.3 0.2 0.3 0.2 0.2 0.3 0.2 0.3 0.3 0.2 0.3 1 0.2 1 0.2 1 0.3 1 0.3 0.2 0.2 0.3h-2l-0.2-0.3-0.3-0.2h-0.5l-0.2-0.5-0.3-0.5-0.3-0.2-0.2-0.3-1-0.5-1-0.5-0.2-0.3-0.3-0.2-0.5-1.5q-0.5-1.5-7.8-10.7-7.2-9.3-9.2-13-2-3.8-3-4-1-0.3-7.5-12.8t-14.3-29.8q-7.7-17.2-9.7-25.2t-1-17.5 7.7-21.5q6.8-12 7.8-12t1.2-1.5q0.3-1.5 2.6-4.5z" fill="#f7f7f7" stroke="#f7f7f7"/>
  <path d="m432.8 375.8l0.2-0.3 0.2-0.3 0.3-0.2 0.5 1 0.5 1 0.3 0.2 0.2 0.3 0.2 0.3 0.3 0.2 9.3 18.5q9.2 18.5 10.2 18.5t4.5 8 4.5 8 3 5 3 5 2 3 2 3 1 1.5 1 1.5 6.5 10.2q5.5 10.3 6 11.6 0.5 1.2 1.5 1.2t1 1-3.8 4.5q-3.7 3.5-15.2 16t-11.8 12.7l-0.2 0.3-0.2 0.3-0.3 0.2-0.3 1-0.2 1h-2v3h-0.5l-0.3 0.2-0.2 0.3-0.2 0.3-0.3 0.2-0.3 0.2-0.2 0.3-0.2 0.3-0.3 0.2-0.3 0.2-0.2 0.3-0.2 0.3-0.3 0.2-0.5 1-0.5 1-0.3 0.2-0.2 0.3-1 0.3q-1 0.2-3.5 5-2.5 4.7-4.3 7-1.7 2.2-2 2.4l-0.2 0.3-0.2 0.3-0.3 0.2-0.5 1-0.5 1-0.3 1-0.2 1h-2l-0.2-1-0.3-1-0.3-0.2-0.2-0.3-0.2-0.3-0.3-0.2-0.3-0.2-0.2-0.3v-3.5l1 0.2q1 0.3 2 0.3h1l-0.2-0.3-0.3-0.2-0.5-2.5-0.5-2.5-0.3-0.2-0.2-0.3-0.2-0.3q-0.3-0.2-5.3-11.7t-7.3-17.5q-2.2-6-3.2-6.2-1-0.3-15.2-24.6l-14.3-24.2-0.3-0.2-0.2-0.3-0.2-0.3-0.3-0.2-0.3-0.2-0.2-0.3-2.5-0.3-2.5-0.2 0.2-1 0.3-1 0.5-1q0.5-1 10.5-15.5t12.3-16.5q2.2-2 3.4-4.5 1.3-2.5 5-6 3.8-3.5 4.3-5.5t1.5-2.2q1-0.3 1.5-1.6 0.5-1.2 1.5-1.2t2.5-2.2l1.5-2.3 0.2-0.3 0.3-0.2 0.3-0.2 0.2-0.3 0.2-0.3 0.3-0.2 0.3-0.2 0.2-0.3 0.2-0.3 0.3-0.2 0.3-0.2z" fill="#464646" stroke="#464646"/>
  <path d="m761 376l0.5-1 0.3 1 0.2 1h2l0.2 1 0.3 1 7 7.5q7 7.5 7.3 8.5 0.2 1 3.4 4 3.3 3 14.3 19t11.5 17l0.5 1 0.3 0.2 0.2 0.3 0.2 0.3 0.3 0.2 0.3 1 0.2 1-0.5-0.2-0.5-0.3-0.2-0.3-0.3-0.2-0.3-0.2-0.2-0.3-0.2-0.3-0.3-0.2-0.3-0.2-0.2-0.3-0.2-0.3-0.3-0.2-0.5 1-0.5 1-0.3 0.2-0.2 0.3-0.2 0.3-0.3 0.2-0.3 0.2-0.2 0.3-0.2 0.3-0.3 0.2-8.5 15q-8.5 15-8.8 16-0.2 1-1.2 1t-6.5 11.8q-5.5 11.7-10.7 23-5.3 11.2-5.6 13.7-0.2 2.5-1.2 2.7l-1 0.3 1 0.5 1 0.5-0.2 0.3-0.3 0.2-0.3 0.2-0.2 0.3-0.2 0.3-0.3 0.2-0.3 0.2-0.2 0.3-0.2 0.3-0.3 0.2v2l0.3 0.2 0.2 0.3 0.2 0.3 0.3 0.2 0.3 1 0.2 1-0.2 1-0.3 1-0.3 0.2-0.2 0.3-0.2 0.3-0.3 0.2-0.3 0.2-0.2 0.3-0.2 0.3-0.3 0.2-0.3 0.2-0.2 0.3-0.2 0.3-0.3 0.2-0.3 0.2-0.2 0.3-0.2 0.3-0.3 0.2-0.5-1-0.5-1-0.3-0.2-0.2-0.3-0.2-0.3-0.3-0.2-0.3-0.2-0.2-0.3-0.2-0.3-0.3-0.2-0.5-1.5q-0.5-1.5-2.5-4t-4.7-7q-2.8-4.5-3.8-4.7l-1-0.3-0.2-0.3-0.3-0.2-0.5-1-0.5-1-0.3-0.2-0.2-0.3-0.2-0.3-0.3-0.2-0.3-0.2-0.2-0.3v-0.5l-0.2-0.5q-0.3-0.5-0.6-0.5h-0.2l-0.2-0.5q-0.3-0.5-0.8-1.5l-0.5-1-0.3-0.2-0.2-0.3-0.2-0.3-0.3-0.2-0.3-0.2-0.2-0.3-0.2-0.3q-0.3-0.2-0.6-1.2-0.2-1-1.2-1.2-1-0.3-4.5-5-3.5-4.8-8-8.3t-4.7-4.5q-0.3-1-1.6-1.5-1.2-0.5-5-5-3.7-4.5-2-7.7 1.8-3.3 6.8-12.6 5-9.2 6-9.2t5-8 5-8 6-9.8q5-9.7 8.8-17 3.7-7.2 5-7.7 1.2-0.5 6.4-11.5l5.3-11 0.5-1z" fill="#454545" stroke="#454545"/>
  <g fill="#070707" stroke="#070707">
   <path d="m788.8 611l0.2 4h-0.5l-0.5 1-0.5 1-0.3 0.2-0.2 0.3h-3l-1-0.5-1-0.5-1-0.5-1-0.5-0.2-0.3-0.3-0.2-0.3-0.2q-0.2-0.3-2.7-2-2.5-1.8-2.5-2.8t-1-1-1.2-1q-0.3-1-1.6-1.5-1.2-0.5-1.7-2.3-0.5-1.7-5-8.4-4.5-6.8-5.5-6.8t-1.2-1.5q-0.3-1.5-7-12.5-6.8-11-9.8-12.5t-3.2-2.5q-0.3-1-3.3-3t3.7-13.5l6.8-11.5h0.2q0.3 0 0.6-0.5l0.2-0.5h1.2q1.3 0 5.6 7.2 4.2 7.3 5.2 7.6 1 0.2 13.8 23.2 12.7 23 15.2 30.5t2.8 11.5z"/>
   <path d="m440 542.5l7-12.5h3l0.8 1.5q0.7 1.5 1.2 2.5l0.5 1 0.3 0.2 0.2 0.3 0.5 0.3 0.5 0.2 0.8 1.5q0.7 1.5 1.2 2.5l0.5 1 4 6q4 6 4.3 7l0.2 1-6 4.2q-6 4.3-13 15.6-7 11.2-8 11.2t-5.2 7q-4.3 7-6 10-1.8 3-2.8 3t-4.5 4.2q-3.5 4.3-4 4.6l-0.5 0.2h-0.5l-0.3 0.2-0.2 0.3-0.2 0.3-0.3 0.2-0.3 0.2-0.2 0.3-1 0.5-1 0.5h-3l-1-0.3-1-0.2 0.2-7q0.3-7 0.6-8.5l0.2-1.5 0.5-0.2q0.5-0.3 0.5-0.6v-0.2h0.2q0.3 0 0.6-1l0.2-1v-1.5q0-1.5 1-1.5t1.2-1.5q0.3-1.5 7-14.5 6.8-13 7.8-13t3-5 3-5 8-12.5z"/>
  </g>
  <path d="m976 329h1l0.2 1 0.3 1v1l0.7 0.5q0.8 0.5 2 9 1.3 8.5 1.6 13.5l0.2 5h-0.2q-0.3 0-1 4-0.8 4-1.8 4.2-1 0.3-1 2 0 1.8-1 1.8t-0.8 1q0.3 1-1.2 6t-2.8 4.5q-1.2-0.5-1.2 1.5t-1 2.2q-1 0.3-1.2 2-0.3 1.8-1 2-0.8 0.3-2 2-1.3 1.8-2 1.6-0.8-0.3-1.3 3-0.5 3.2-3.5 3.2t-3 3.5-3 3.5-3.5 2.5-2.5 3-1.8 2q0.3 1.5-1 2.7-1.2 1.3-2.7 1.8t-2 3l-0.5 2.5-0.2 0.3-0.3 0.2-0.3 0.2-0.2 0.3-0.2 0.3-0.3 0.2-0.3 0.2-0.2 0.3 0.2 0.3 0.3 0.2 0.5 1 0.5 1 0.5 1 0.5 1 0.3-0.2 0.2-0.3 1-0.3q1-0.2 1.2-1.2 0.3-1 0.6-1.2l0.2-0.3 1-0.3 1-0.2-0.2 1-0.3 1-0.5 1-0.5 1-0.3 0.2-0.2 0.3-0.2 0.3-0.3 0.2v1q0 1 0 2.5t-2.7 5.3q-2.8 3.7-6.3 11.4-3.5 7.8-4.5 8-1 0.3-10.2 14-9.3 13.8-14.3 20.3t-8.3 6l-3.2-0.5-0.2-0.5q-0.3-0.5-0.6-0.5h-0.4q-0.3 0-0.6 1-0.2 1-1.4 1.5l-1.3 0.5-0.3 0.2q-0.2 0.3-1.4 2-1.3 1.8-3.6 3.8-2.2 2-2.4 3-0.3 1-1.6 1.5-1.2 0.5-1.4 1.5-0.3 1-2 2.5-1.8 1.5-2 2.5-0.3 1-3 4.2-2.8 3.3-6.3 8.6-3.5 5.2-5 5.2t-5 5.5-4.5 5.5-2.5 3-2.5 3-1.5 2-1.5 2-4 4.5-4 4.5-1 1.5-1 1.5-1.2 3q-0.3 3 2 6.5l2.2 3.5 0.5 2.5q0.5 2.5-0.5 2.5t-1.8 3q-0.7 3-3 7-2.2 4-3.2 4t-3 4-5.8 7.5q-3.7 3.5-5 4-1.2 0.5-1.7 1.7-0.5 1.3-0.7 1.6l-0.3 0.2-0.5 1-0.5 1-0.3 1.5-0.2 1.5-1 0.2q-1 0.3-1 0.6v0.2l-0.5 0.2q-0.5 0.3-0.5 0.6v1.2q0 1-1.2 1.5-1.3 0.5-1.6 1.5l-0.2 1-1 0.2-1 0.3-0.2 0.3-0.3 0.2-0.3 0.2-0.2 0.3-0.2 0.3-0.3 0.2-0.3 0.2-0.2 0.3-0.2 0.3-0.3 0.2-0.3 0.2-0.2 0.3-0.2 0.3-0.3 0.2-0.3 0.2-0.2 0.3-0.2 0.3-0.3 0.2h-0.5l0.2-1.5 0.3-1.5v-2l-0.3-0.2-0.2-0.3 0.2-0.3 0.3-0.2 0.3-0.2 0.2-0.3 0.2-0.3 0.3-0.2 0.3-0.2 0.2-0.3 0.2-0.3 0.3-0.2 0.3-0.2q0.2-0.3 2.4-5.6 2.3-5.2 1.6-5.7-0.8-0.5 1.4-6l2.3-5.5 0.3-1 0.2-1h0.2q0.3 0 0.6-0.5l0.2-0.5h0.2q0.3 0 0.6-0.5l0.2-0.5h0.2q0.3 0 0.6-0.5l0.2-0.5 0.2-1q0.3-1 1-3 0.8-2-0.2-2.2-1-0.3 1.2-3.6 2.3-3.2 1.6-3.7-0.8-0.5-1-1.5-0.3-1 0.7-3.5t7.3-11q6.2-8.5 7.2-8.5t2.8-3q1.7-3 2.7-7.5t5.3-11.3q4.2-6.7 5-9l0.7-2.2 0.5-2 0.5-2 0.3-0.2 0.2-0.3 0.5-0.3 0.5-0.2v0.5l0.2 0.3 0.3 0.2 0.5 3.5 0.5 3.5 0.5-1 0.5-1 0.3-0.2 0.2-0.3 0.2-0.3 0.3-0.2 0.5-1 0.5-1 0.3-0.2 0.2-0.3 0.2-0.3 0.3-0.2 0.3-0.2 0.2-0.3 2.5-4.7q2.5-4.8 3.5-4.8t8.5-12.2q7.5-12.3 8.5-12.6 1-0.2 4.8-6.7 3.7-6.5 15-25.5 11.2-19 12.2-19t6.8-9.5q5.7-9.5 6-10.5l0.2-1h0.5l0.3-0.2 0.2-0.3 0.2-0.3 0.3-0.2 0.3-0.2 0.2-0.3 0.2-0.3 0.3-0.2 0.5-1 0.5-1 1.5-1.5q1.5-1.5 6.2-10.3 4.8-8.7 5.8-10.7t1.8-2.7q0.7-0.8 4.2-7.8t3.8-9q0.2-2 1-2.5 0.7-0.5 1-2.5 0.2-2 1.2-2t2-1.8q1-1.7 1.8-2.4 0.7-0.8 1.4-3 0.8-2.3 2.3-7 1.5-4.8 2.5-4.8t1.5-2.5 1.7-3.5q1.3-1 3-5.8 1.8-4.7 3-5.4 1.3-0.8 0.8-1.3t-0.8-0.7l-0.2-0.3 1-0.5 1-0.5-0.2-0.3-0.3-0.2-0.3-1q-0.2-1 1.8-1.5t2 1 1 1.5zm-9.8 60.8q-0.2-0.3 0-0.6 0.3-0.2 0.3 0.3t-0.3 0.3zm-4 3q-0.2-0.3 0-0.6 0.3-0.2 0.3 0.3t-0.3 0.3zm-149 202q-0.2-0.3 0-0.6 0.3-0.2 0.3 0.3t-0.3 0.3z" fill="#b0b0b0" stroke="#b0b0b0"/>
 </g>
</svg>
